<?xml version="1.0" encoding="utf-8"?>
<!-- Generated by IcoMoon.io -->
<!DOCTYPE svg PUBLIC "-//W3C//DTD SVG 1.1//EN" "http://www.w3.org/Graphics/SVG/1.1/DTD/svg11.dtd">
<svg version="1.1" xmlns="http://www.w3.org/2000/svg" xmlns:xlink="http://www.w3.org/1999/xlink" width="16" height="16" viewBox="0 0 16 16">
<path fill="#444" d="M9.813 16h-3.625v-2.137c-0.362-0.113-0.725-0.262-1.063-0.438l-1.5 1.512-2.563-2.563 1.513-1.512c-0.175-0.338-0.325-0.688-0.438-1.063h-2.138v-3.625h2.138c0.112-0.362 0.263-0.725 0.438-1.063l-1.512-1.487 2.563-2.563 1.513 1.513c0.338-0.175 0.688-0.325 1.063-0.438v-2.138h3.625v2.138c0.363 0.112 0.725 0.263 1.063 0.438l1.488-1.512 2.563 2.563-1.512 1.513c0.175 0.338 0.325 0.688 0.438 1.063h2.137v3.625h-2.137c-0.113 0.363-0.262 0.725-0.438 1.063l1.512 1.488-2.563 2.563-1.512-1.512c-0.338 0.175-0.7 0.325-1.063 0.438v2.138zM7.338 14.863h1.338v-1.887l0.45-0.1c0.55-0.125 1.063-0.338 1.55-0.637l0.387-0.238 1.313 1.325 0.938-0.938-1.325-1.35 0.238-0.387c0.3-0.475 0.512-1 0.637-1.55l0.1-0.45h1.887v-1.313h-1.887l-0.1-0.45c-0.125-0.55-0.338-1.075-0.637-1.55l-0.238-0.388 1.338-1.325-0.95-0.95-1.338 1.337-0.387-0.237c-0.475-0.3-1-0.513-1.55-0.638l-0.45-0.1v-1.9h-1.313v1.888l-0.45 0.1c-0.55 0.125-1.063 0.337-1.55 0.637l-0.388 0.25-1.325-1.337-0.95 0.95 1.337 1.337-0.25 0.388c-0.3 0.475-0.513 1-0.638 1.55l-0.1 0.45h-1.887v1.337h1.887l0.1 0.45c0.125 0.55 0.337 1.063 0.638 1.55l0.237 0.387-1.325 1.3 0.938 0.938 1.338-1.338 0.388 0.238c0.475 0.3 1 0.512 1.55 0.637l0.45 0.1v1.912zM8 11.050c-1.675 0-3.050-1.363-3.050-3.050 0-1.675 1.362-3.050 3.050-3.050 1.675 0 3.050 1.362 3.050 3.050 0 1.675-1.375 3.050-3.050 3.050zM8 6.1c-1.050 0-1.9 0.85-1.9 1.9s0.85 1.9 1.9 1.9 1.9-0.85 1.9-1.9-0.85-1.9-1.9-1.9z"></path>
</svg>
