<?xml version="1.0" encoding="utf-8"?>
<!-- Generated by IcoMoon.io -->
<!DOCTYPE svg PUBLIC "-//W3C//DTD SVG 1.1//EN" "http://www.w3.org/Graphics/SVG/1.1/DTD/svg11.dtd">
<svg version="1.1" xmlns="http://www.w3.org/2000/svg" xmlns:xlink="http://www.w3.org/1999/xlink" width="16" height="16" viewBox="0 0 16 16">
<path fill="#444" d="M7.662 10.675c0.9-1.475 1.575-2.625 2.025-3.475s0.675-1.388 0.675-1.625c0-0.075-0.037-0.15-0.088-0.213-0.063-0.050-0.125-0.075-0.213-0.075-0.15 0-0.6 0.15-1.325 0.45s-1.175 0.5-1.313 0.588l-1.15 0.65c-0.5 0.263-0.775 0.4-0.85 0.4s-0.138-0.1-0.213-0.3c0-0.375 0.25-0.875 0.737-1.513 0.537-0.675 1.2-1.237 1.962-1.65 0.1-0.075 0.15-0.063 0.15 0.013s-0.063 0.137-0.175 0.163c-0.112 0.088-0.225 0.188-0.325 0.287-0.112 0.125-0.225 0.275-0.313 0.425 1.063-0.537 1.838-0.913 2.338-1.125 0.4-0.2 0.825-0.313 1.262-0.337 0.25-0.013 0.512 0.050 0.725 0.188 0.175 0.125 0.275 0.337 0.275 0.55-0.025 0.325-0.113 0.638-0.25 0.925-0.213 0.5-0.463 0.987-0.738 1.475-0.325 0.575-0.662 1.15-0.988 1.713l-1.813 3.088c0.975-1.225 1.875-2.287 2.7-3.213 0.813-0.925 1.537-1.662 2.15-2.237 0.488-0.475 1-0.9 1.55-1.3 0.425-0.287 0.725-0.438 0.925-0.438s0.275 0.075 0.25 0.213c0.1 0.15 0.188 0.313 0.262 0.487 0.063 0.15 0.1 0.3 0.112 0.463 0 0.35-0.088 0.688-0.262 0.987-0.225 0.412-0.475 0.8-0.75 1.175-0.95 1.275-1.637 2.288-2.075 3.025s-0.662 1.338-0.675 1.787c0 0.338 0.175 0.5 0.525 0.5 0.2-0.012 0.4-0.075 0.563-0.175 0.275-0.162 0.537-0.35 0.775-0.55 0.3-0.25 0.6-0.525 0.912-0.825v0.588c-0.425 0.45-0.813 0.825-1.162 1.137s-0.662 0.588-0.963 0.825c-0.262 0.213-0.537 0.387-0.825 0.537-0.2 0.113-0.412 0.175-0.637 0.175-0.238 0.012-0.475-0.088-0.637-0.275-0.162-0.2-0.25-0.45-0.238-0.713 0.012-0.338 0.075-0.675 0.175-0.988 0.15-0.45 0.325-0.9 0.537-1.325 0.238-0.512 0.537-1.050 0.9-1.637s0.775-1.2 1.225-1.838c0.45-0.638 0.675-1.050 0.675-1.225s-0.050-0.237-0.162-0.15c-0.45 0-1.475 0.9-3.063 2.688l-0.525 0.625-0.762 0.95-0.875 1.137-0.963 1.275c-0.15 0.213-0.287 0.313-0.4 0.313s-0.275-0.1-0.475-0.3c-0.2-0.2-0.3-0.338-0.3-0.425s0.138-0.35 0.412-0.8c0.3-0.438 0.525-0.787 0.7-1.075zM4.3 11.537l-0.075 0.287h-4.225l0.1-0.287c0.425-0.012 0.7-0.037 0.838-0.1 0.2-0.063 0.363-0.2 0.488-0.363 0.163-0.238 0.338-0.662 0.512-1.275l1.788-6.175c0.125-0.375 0.2-0.763 0.237-1.163 0-0.125-0.038-0.237-0.1-0.337-0.075-0.1-0.175-0.175-0.3-0.212-0.263-0.063-0.525-0.087-0.788-0.075l0.087-0.287h3.962l-0.075 0.288c-0.25-0.025-0.487 0.012-0.725 0.1-0.213 0.087-0.388 0.237-0.513 0.425s-0.275 0.6-0.45 1.238l-1.788 6.2c-0.163 0.563-0.25 0.925-0.25 1.088 0 0.113 0.025 0.225 0.087 0.325 0.075 0.1 0.175 0.175 0.3 0.213 0.3 0.063 0.6 0.1 0.888 0.113z"></path>
</svg>
