<?xml version="1.0" encoding="utf-8"?>
<!-- Generated by IcoMoon.io -->
<!DOCTYPE svg PUBLIC "-//W3C//DTD SVG 1.1//EN" "http://www.w3.org/Graphics/SVG/1.1/DTD/svg11.dtd">
<svg version="1.1" xmlns="http://www.w3.org/2000/svg" xmlns:xlink="http://www.w3.org/1999/xlink" width="16" height="16" viewBox="0 0 16 16">
<path fill="#444" d="M3.538 13.2v-4.463h1.587c1.588 0 2.375 0.725 2.375 2.175 0 0.7-0.213 1.25-0.65 1.662s-1.013 0.625-1.725 0.625h-1.587zM4.55 9.55v2.838h0.5c0.438 0 0.775-0.125 1.025-0.387s0.375-0.613 0.375-1.063c0-0.425-0.125-0.762-0.375-1-0.25-0.25-0.588-0.363-1.037-0.363h-0.487zM12.075 13.2h-1.1l-0.313-0.988h-1.588l-0.313 0.988h-1.088l1.625-4.463h1.188l1.588 4.463zM10.425 11.438l-0.475-1.5c-0.037-0.113-0.063-0.25-0.075-0.4h-0.025c-0.012 0.125-0.037 0.262-0.075 0.387l-0.488 1.512h1.137zM16 8.738l-1.537 4.463h-1.137l-1.525-4.463h1.088l0.938 3.113c0.050 0.162 0.075 0.313 0.088 0.45h0.012c0.012-0.137 0.050-0.287 0.1-0.463l0.925-3.1h1.050zM1.238 10.037c0.925-0.65 1.838-1.313 2.763-1.963 0.237-0.162 0.438-0.35 0.475-0.638 0.313 0.175 0.6 0.362 0.912 0.513s0.662 0.2 1.013 0.2c0.35 0 0.688-0.075 1.013-0.213s0.613-0.338 0.863-0.588c0.875-0.912 1.012-2.263 0.338-3.325-0.662-1.038-1.963-1.475-3.138-1.063-0.563 0.2-1.025 0.55-1.337 1.050-0.525 0.825-0.563 1.688-0.2 2.575-0.025 0.013-0.038 0.025-0.038 0.025-0.025 0-0.050 0-0.075 0-0.212-0.025-0.4 0.050-0.575 0.175-0.6 0.425-1.188 0.85-1.788 1.275-0.363 0.25-0.725 0.512-1.075 0.762-0.412 0.287-0.487 0.787-0.188 1.137 0.25 0.3 0.662 0.338 1.038 0.075zM4.675 4.763c0.362-0.913 1.438-1.375 2.362-1 0.963 0.388 1.425 1.438 1.037 2.4s-1.45 1.375-2.35 1.025c-0.987-0.388-1.438-1.438-1.050-2.425z"></path>
</svg>
