<?xml version="1.0" encoding="utf-8"?>
<!-- Generated by IcoMoon.io -->
<!DOCTYPE svg PUBLIC "-//W3C//DTD SVG 1.1//EN" "http://www.w3.org/Graphics/SVG/1.1/DTD/svg11.dtd">
<svg version="1.1" xmlns="http://www.w3.org/2000/svg" xmlns:xlink="http://www.w3.org/1999/xlink" width="16" height="16" viewBox="0 0 16 16">
<path fill="#444" d="M10.063 0h-7.225c-0.575 0-1.038 0.463-1.038 1.038v13.938c0 0.575 0.462 1.037 1.038 1.037h10.325c0.575 0 1.037-0.463 1.037-1.037v-10.85l-4.137-4.125zM9.6 1.038h0.025l3.525 3.525v0.025h-2.975c-0.313 0-0.575-0.263-0.575-0.575v-2.975zM13.175 14.963v0h-10.338v-13.925h5.625v2.987c0 0.95 0.775 1.725 1.725 1.725h2.988v9.213zM6.088 10.725h-0.55v1.4h-1.063v-4.125h2.063c0.912 0 1.438 0.613 1.438 1.375 0 0.713-0.438 1.1-0.825 1.238l0.85 1.512h-1.225l-0.688-1.4zM6.388 8.9h-0.838v0.925h0.838c0.275 0 0.513-0.175 0.513-0.463s-0.237-0.463-0.513-0.463zM10.25 7.237h0.85v-0.537h-0.85c-0.338 0-0.65 0.15-0.85 0.375-0.2-0.225-0.512-0.375-0.85-0.375h-0.85v0.537h0.85c0.325 0 0.588 0.225 0.588 0.5v4.638c0 0.275-0.262 0.5-0.588 0.5h-0.85v0.537h0.85c0.338 0 0.65-0.15 0.85-0.375 0.2 0.225 0.512 0.375 0.85 0.375h0.85v-0.537h-0.85c-0.325 0-0.588-0.225-0.588-0.5v-4.625c0-0.275 0.262-0.513 0.588-0.513z"></path>
</svg>
