<?xml version="1.0" encoding="utf-8"?>
<!-- Generated by IcoMoon.io -->
<!DOCTYPE svg PUBLIC "-//W3C//DTD SVG 1.1//EN" "http://www.w3.org/Graphics/SVG/1.1/DTD/svg11.dtd">
<svg version="1.1" xmlns="http://www.w3.org/2000/svg" xmlns:xlink="http://www.w3.org/1999/xlink" width="16" height="16" viewBox="0 0 16 16">
<path fill="#444" d="M15.75 8.050v6.2c0 0.55-0.45 1-1 1h-13.5c-0.55 0-1-0.45-1-1v-6.2c0.225 0.125 0.475 0.2 0.75 0.2h2.375v0.75c0 0.35 0.275 0.625 0.625 0.625s0.625-0.275 0.625-0.625v-0.75h6.75v0.75c0 0.35 0.275 0.625 0.625 0.625s0.625-0.275 0.625-0.625v-0.75h2.375c0.275 0 0.525-0.075 0.75-0.2zM16 3.75v3c0 0.55-0.45 1-1 1h-2.375v-0.75c0-0.35-0.275-0.625-0.625-0.625s-0.625 0.275-0.625 0.625v0.75h-6.75v-0.75c0-0.35-0.275-0.625-0.625-0.625s-0.625 0.275-0.625 0.625v0.75h-2.375c-0.55 0-1-0.45-1-1v-3c0-0.55 0.45-1 1-1h4v-1c0-0.55 0.45-1 1-1h4c0.55 0 1 0.45 1 1v1h4c0.55 0 1 0.45 1 1zM6 2.75h4v-0.75c0-0.137-0.113-0.25-0.25-0.25h-3.5c-0.138 0-0.25 0.113-0.25 0.25v0.75z"></path>
</svg>
