<?xml version="1.0" encoding="utf-8"?>
<!-- Generated by IcoMoon.io -->
<!DOCTYPE svg PUBLIC "-//W3C//DTD SVG 1.1//EN" "http://www.w3.org/Graphics/SVG/1.1/DTD/svg11.dtd">
<svg version="1.1" xmlns="http://www.w3.org/2000/svg" xmlns:xlink="http://www.w3.org/1999/xlink" width="16" height="16" viewBox="0 0 16 16">
<path fill="#444" d="M16 16h-16v-16h16v16zM10.5 1h-9.5v3h9.5v-3zM15 1h-3.5v3h3.5v-3zM15 5h-14v10h14v-10zM5.5 6h-3.5v2h3.5v-2zM14 6h-3.5v2h3.5v-2zM9.75 6h-3.5v2h3.5v-2zM5.5 9h-3.5v2h3.5v-2zM14 9h-3.5v2h3.5v-2zM9.75 9h-3.5v2h3.5v-2zM5.5 12h-3.5v2h3.5v-2zM14 12h-3.5v2h3.5v-2zM9.75 12h-3.5v2h3.5v-2z"></path>
</svg>
