<?xml version="1.0" encoding="utf-8"?>
<!-- Generated by IcoMoon.io -->
<!DOCTYPE svg PUBLIC "-//W3C//DTD SVG 1.1//EN" "http://www.w3.org/Graphics/SVG/1.1/DTD/svg11.dtd">
<svg version="1.1" xmlns="http://www.w3.org/2000/svg" xmlns:xlink="http://www.w3.org/1999/xlink" width="16" height="16" viewBox="0 0 16 16">
<path fill="#444" d="M15.037 6.088l-5.588 3.987c-0.425 0.3-0.925 0.463-1.45 0.463s-1.025-0.162-1.45-0.463l-5.588-3.987c-0.387-0.275-0.713-0.638-0.963-1.050v7.463c0 0.55 0.45 1 1 1h14c0.55 0 1-0.45 1-1v-7.463c-0.25 0.412-0.575 0.775-0.963 1.050z"></path>
<path fill="#444" d="M6.838 9.675l-5.575-3.987c-0.8-0.563-1.262-1.475-1.262-2.45v-0.237c0-0.275 0.225-0.5 0.5-0.5h15c0.275 0 0.5 0.225 0.5 0.5v0.237c0 0.975-0.463 1.875-1.262 2.438l-5.575 4c-0.7 0.488-1.625 0.488-2.325 0z"></path>
</svg>
