<?xml version="1.0" encoding="utf-8"?>
<!-- Generated by IcoMoon.io -->
<!DOCTYPE svg PUBLIC "-//W3C//DTD SVG 1.1//EN" "http://www.w3.org/Graphics/SVG/1.1/DTD/svg11.dtd">
<svg version="1.1" xmlns="http://www.w3.org/2000/svg" xmlns:xlink="http://www.w3.org/1999/xlink" width="16" height="16" viewBox="0 0 16 16">
<path fill="#b0b0b0" d="M12.387 7.287v7.688h-10.325v-13.938h5.625v2.987c0 0.588 0.3 1.112 0.75 1.425l0.863-0.862c-0.262-0.050-0.475-0.287-0.475-0.563v-2.987h0.025l1.988 1.987 0.725-0.725-2.275-2.3h-7.237c-0.55 0-1.012 0.463-1.012 1.038v13.938c0 0.575 0.463 1.037 1.038 1.037h10.325c0.575 0 1.037-0.463 1.037-1.037v-8.725l-1.050 1.037zM9.088 10.575h2.275v0.675h-1.475v0.512h1.438v0.675h-1.438v1.225h-0.8v-3.088zM5.9 10.575h1.3c0.975 0 1.675 0.588 1.675 1.55s-0.7 1.55-1.675 1.55h-1.3v-3.1zM7.2 12.975c0.537 0 0.862-0.4 0.862-0.85 0-0.475-0.287-0.85-0.85-0.85h-0.5v1.7c0 0 0.487 0 0.487 0zM3.1 10.575h1.55c0.7 0 1.075 0.475 1.075 1.025 0 0.563-0.375 1.012-1.075 1.012h-0.75v1.050h-0.8c0 0 0-3.088 0-3.088zM4.537 11.25h-0.65v0.7h0.65c0.213 0 0.375-0.137 0.375-0.338 0-0.225-0.162-0.363-0.375-0.363zM6.713 10.063l1.787-0.363 6.463-6.463-1.438-1.438-6.463 6.475-0.35 1.787z"></path>
</svg>
