<?xml version="1.0" encoding="utf-8"?>
<!-- Generated by IcoMoon.io -->
<!DOCTYPE svg PUBLIC "-//W3C//DTD SVG 1.1//EN" "http://www.w3.org/Graphics/SVG/1.1/DTD/svg11.dtd">
<svg version="1.1" xmlns="http://www.w3.org/2000/svg" xmlns:xlink="http://www.w3.org/1999/xlink" width="16" height="16" viewBox="0 0 16 16">
<path fill="#444" d="M15.5 7h-2v-4.5l-2.5-2.513h-8c-0.275 0-0.5 0.225-0.5 0.5v6.513h-2c-0.275 0-0.5 0.225-0.5 0.5v5c0 0.275 0.225 0.5 0.5 0.5h2v2.488c0 0.275 0.225 0.5 0.5 0.5h10c0.275 0 0.5-0.225 0.5-0.5v-2.488h2c0.275 0 0.5-0.225 0.5-0.5v-5c0-0.275-0.225-0.5-0.5-0.5zM3.5 0.988h7.088l0.012 0.012v1.925h1.9v5.075h-9v-7.013zM12.5 14.988h-9v-2.988h9v2.988zM14.5 10h-2c-0.275 0-0.5-0.225-0.5-0.5s0.225-0.5 0.5-0.5h2c0.275 0 0.5 0.225 0.5 0.5s-0.225 0.5-0.5 0.5z"></path>
</svg>
