<?xml version="1.0" encoding="utf-8"?>
<!-- Generated by IcoMoon.io -->
<!DOCTYPE svg PUBLIC "-//W3C//DTD SVG 1.1//EN" "http://www.w3.org/Graphics/SVG/1.1/DTD/svg11.dtd">
<svg version="1.1" xmlns="http://www.w3.org/2000/svg" xmlns:xlink="http://www.w3.org/1999/xlink" width="16" height="16" viewBox="0 0 16 16">
<path fill="#444" d="M7 3.125l-0.85-1.5c-0.088-0.15-0.25-0.25-0.438-0.25h-5.213c-0.275 0-0.5 0.225-0.5 0.5v1.25h7zM15 3.625h-15v10c0 0.55 0.45 1 1 1h14c0.55 0 1-0.45 1-1v-9c0-0.55-0.45-1-1-1zM10.438 10.688c0.25 0.25 0.25 0.637 0 0.887-0.113 0.125-0.287 0.188-0.438 0.188s-0.313-0.063-0.438-0.188l-1.563-1.563-1.563 1.563c-0.112 0.125-0.287 0.188-0.438 0.188s-0.313-0.063-0.438-0.188c-0.25-0.25-0.25-0.637 0-0.887l1.55-1.563-1.563-1.55c-0.25-0.25-0.25-0.638 0-0.888s0.638-0.25 0.888 0l1.563 1.55 1.563-1.563c0.25-0.25 0.637-0.25 0.887 0s0.25 0.638 0 0.888l-1.563 1.562 1.55 1.563z"></path>
</svg>
