<?xml version="1.0" encoding="utf-8"?>
<!-- Generated by IcoMoon.io -->
<!DOCTYPE svg PUBLIC "-//W3C//DTD SVG 1.1//EN" "http://www.w3.org/Graphics/SVG/1.1/DTD/svg11.dtd">
<svg version="1.1" xmlns="http://www.w3.org/2000/svg" xmlns:xlink="http://www.w3.org/1999/xlink" width="16" height="16" viewBox="0 0 16 16">
<path fill="#d0d0d0" d="M16 14.063v0.8c0 0.625-1.512 1.137-3.25 1.137s-3.25-0.512-3.25-1.137v-0.8c0.787 0.563 2.275 0.738 3.25 0.738s2.463-0.175 3.25-0.738zM12.75 12.963c-0.975 0-2.463-0.175-3.25-0.738v0.787c0 0.625 1.512 1.137 3.25 1.137s3.25-0.512 3.25-1.137v-0.787c-0.787 0.563-2.275 0.738-3.25 0.738zM12.75 8.2c-1.738 0-3.25 0.512-3.25 1.137s1.512 1.137 3.25 1.137c1.738 0 3.25-0.512 3.25-1.137s-1.512-1.137-3.25-1.137zM12.75 11.113c-0.975 0-2.463-0.175-3.25-0.738v0.787c0 0.625 1.512 1.137 3.25 1.137s3.25-0.512 3.25-1.137v-0.787c-0.787 0.575-2.275 0.738-3.25 0.738z"></path>
<path fill="#707070" d="M6.475 9.037c-1.275 0-2.338-1.162-2.338-2.625s1.050-2.625 2.338-2.625 2.338 1.162 2.338 2.625-1.063 2.625-2.338 2.625zM4.45 2.8c0.125-0.263 0.188-0.563 0.188-0.875 0-1.075-0.763-1.925-1.7-1.925s-1.712 0.85-1.712 1.925c0 0.313 0.075 0.612 0.188 0.875-0.8 0.263-1.413 1.025-1.413 1.913v1.463c0 0.188 0.138 0.325 0.325 0.325 0.163 0 0.325-0.125 0.325-0.325v-1.463c0-0.675 0.513-1.237 1.163-1.325 0.3 0.3 0.688 0.475 1.125 0.475 0.425 0 0.813-0.175 1.112-0.462 0.213 0.025 0.412 0.112 0.588 0.237 0.188-0.138 0.388-0.263 0.588-0.362-0.213-0.212-0.487-0.375-0.775-0.475zM2.938 3.163c-0.587 0-1.050-0.563-1.050-1.225s0.463-1.225 1.050-1.225 1.050 0.575 1.050 1.225-0.462 1.225-1.050 1.225zM11.588 2.8c0.125-0.263 0.188-0.563 0.188-0.875 0-1.075-0.775-1.925-1.713-1.925s-1.7 0.85-1.7 1.925c0 0.313 0.075 0.612 0.188 0.875-0.3 0.1-0.563 0.263-0.8 0.475 0.2 0.1 0.388 0.212 0.575 0.35 0.188-0.138 0.4-0.237 0.625-0.263 0.3 0.3 0.688 0.475 1.125 0.475 0.425 0 0.813-0.175 1.113-0.462 0.65 0.1 1.137 0.662 1.137 1.325v1.462c0 0.188 0.137 0.325 0.325 0.325 0.175 0 0.313-0.125 0.35-0.3v-1.475c0-0.888-0.6-1.65-1.412-1.913zM10.063 3.163c-0.588 0-1.050-0.563-1.050-1.225s0.463-1.225 1.050-1.225c0.588 0 1.050 0.575 1.050 1.225s-0.463 1.225-1.050 1.225zM8.5 12.113v-3.55c-0.513 0.588-1.225 0.963-2.025 0.963-0.888 0-1.7-0.463-2.213-1.162-0.938 0.387-1.638 1.3-1.638 2.363v1.975c0 0.175 0.163 0.3 0.35 0.3h5.525v-0.887z"></path>
</svg>
