<?xml version="1.0" encoding="utf-8"?>
<!-- Generated by IcoMoon.io -->
<!DOCTYPE svg PUBLIC "-//W3C//DTD SVG 1.1//EN" "http://www.w3.org/Graphics/SVG/1.1/DTD/svg11.dtd">
<svg version="1.1" xmlns="http://www.w3.org/2000/svg" xmlns:xlink="http://www.w3.org/1999/xlink" width="16" height="16" viewBox="0 0 16 16">
<path fill="#505050" d="M10.063 0h-7.237c-0.575 0-1.038 0.463-1.038 1.038v13.938c0 0.575 0.462 1.037 1.038 1.037h10.325c0.575 0 1.037-0.463 1.037-1.037v-10.85l-4.125-4.125zM13.162 14.963h-10.325v-13.925h5.625v2.987c0 0.95 0.775 1.725 1.725 1.725h2.988l-0.012 9.213zM10.175 4.588c-0.313 0-0.575-0.263-0.575-0.575v-2.975h0.025l3.525 3.525v0.025h-2.975zM12 7.487l-1.5 5.675h-1.412l-0.938-3.638c-0.050-0.188-0.075-0.4-0.088-0.637h-0.012c-0.025 0.262-0.063 0.475-0.1 0.637l-0.963 3.637h-1.5l-1.487-5.675h1.4l0.8 3.775c0.037 0.162 0.063 0.375 0.075 0.65h0.025c0.013-0.2 0.050-0.425 0.112-0.662l1.025-3.763h1.375l0.925 3.812c0.037 0.137 0.063 0.338 0.088 0.613h0.012c0.012-0.213 0.037-0.425 0.088-0.637l0.787-3.787c0 0 1.287 0 1.287 0z"></path>
</svg>
