<?xml version="1.0" encoding="utf-8"?>
<!-- Generated by IcoMoon.io -->
<!DOCTYPE svg PUBLIC "-//W3C//DTD SVG 1.1//EN" "http://www.w3.org/Graphics/SVG/1.1/DTD/svg11.dtd">
<svg version="1.1" xmlns="http://www.w3.org/2000/svg" xmlns:xlink="http://www.w3.org/1999/xlink" width="16" height="16" viewBox="0 0 16 16">
<path fill="#444" d="M5.7 9.188h-1.6l-0.188 0.575h-1.075l1.45-3.838h1.237l1.45 3.838h-1.075l-0.2-0.575zM4.362 8.35h1.075l-0.525-1.55-0.55 1.55zM5.675 3.087l7.237-1.275-0.575-1.613-7.95 2.888h1.288zM14.338 3.087l-0.225-1.225-6.95 1.225h7.175zM6.287 1.837l-0.125-0.212c-0.1-0.15-0.263-0.238-0.438-0.225h-5.225c-0.25-0.025-0.475 0.163-0.5 0.425 0 0.012 0 0.012 0 0.025v1.225h2.8l3.487-1.238zM15.012 3.612h-15.012v10.012c0.013 0.537 0.45 0.963 0.975 0.95 0.012 0 0.012 0 0.025 0h8.137c-0.25-0.537-0.375-1.113-0.375-1.7 0-0.525 0.1-1.037 0.3-1.525h-1.063v-0.775h1.488c0.2-0.287 0.425-0.55 0.688-0.775h-2.175v-0.775h3.438c1.613-0.613 3.438-0.15 4.563 1.15v-5.55c0-0.55-0.438-1-0.988-1.013zM12.125 8.25h-4.125v-0.775h4.125v0.775zM13.162 6.713h-5.162v-0.775h5.162v0.775zM12.9 9.8c-1.713 0-3.1 1.387-3.1 3.1s1.387 3.1 3.1 3.1 3.1-1.387 3.1-3.1-1.387-3.1-3.1-3.1zM14.963 13.287h-1.675v1.675h-0.775v-1.675h-1.675v-0.775h1.675v-1.675h0.775v1.675h1.675v0.775z"></path>
</svg>
