<?xml version="1.0" encoding="utf-8"?>
<!-- Generated by IcoMoon.io -->
<!DOCTYPE svg PUBLIC "-//W3C//DTD SVG 1.1//EN" "http://www.w3.org/Graphics/SVG/1.1/DTD/svg11.dtd">
<svg version="1.1" xmlns="http://www.w3.org/2000/svg" xmlns:xlink="http://www.w3.org/1999/xlink" width="16" height="16" viewBox="0 0 16 16">
<path fill="#444" d="M9.875 8l3.037-3.037c0.125-0.125 0.125-0.325 0-0.45l-1.425-1.413c-0.125-0.125-0.325-0.125-0.45 0l-3.037 3.050-3.050-3.050c-0.125-0.125-0.325-0.125-0.45 0l-1.4 1.425c-0.125 0.125-0.125 0.325 0 0.45l3.038 3.038-3.038 3.037c-0.125 0.125-0.125 0.325 0 0.45l1.425 1.425c0.125 0.125 0.325 0.125 0.45 0l3.038-3.050 3.037 3.037c0.125 0.125 0.325 0.125 0.45 0l1.425-1.412c0.125-0.125 0.125-0.325 0-0.45l-3.050-3.050z"></path>
</svg>
