<?xml version="1.0" encoding="utf-8"?>
<!-- Generated by IcoMoon.io -->
<!DOCTYPE svg PUBLIC "-//W3C//DTD SVG 1.1//EN" "http://www.w3.org/Graphics/SVG/1.1/DTD/svg11.dtd">
<svg version="1.1" xmlns="http://www.w3.org/2000/svg" xmlns:xlink="http://www.w3.org/1999/xlink" width="16" height="16" viewBox="0 0 16 16">
<path fill="#404040" d="M7.563 2.638l-0.8-1.4c-0.081-0.143-0.231-0.238-0.404-0.238-0.003 0-0.006 0-0.009 0h-4.887c-0.253 0.007-0.456 0.21-0.462 0.462l-0 10.976c-0 0.004-0 0.008-0 0.013 0 0.523 0.417 0.948 0.936 0.962l13.126 0c0.521-0.014 0.938-0.439 0.938-0.962 0-0.005-0-0.009-0-0.014v-8.812c0-0.004 0-0.008 0-0.013 0-0.523-0.417-0.948-0.936-0.962l-7.501-0z"></path>
<path fill="#303030" d="M7.263 15h-6.775c-0.269 0-0.487-0.218-0.487-0.488v-6.775c0-0.269 0.218-0.487 0.487-0.487h6.775c0.269 0 0.487 0.218 0.487 0.487v6.787c-0.007 0.264-0.223 0.475-0.487 0.475-0 0-0 0-0 0z"></path>
<path fill="#d0d0d0" d="M0.725 7.975v6.3h6.3v-6.3zM6.375 11.537h-2.088v2.088h-0.825v-2.088h-2.087v-0.825h2.087v-2.088h0.838v2.088h2.075z"></path>
</svg>
