<?xml version="1.0" encoding="utf-8"?>
<!-- Generated by IcoMoon.io -->
<!DOCTYPE svg PUBLIC "-//W3C//DTD SVG 1.1//EN" "http://www.w3.org/Graphics/SVG/1.1/DTD/svg11.dtd">
<svg version="1.1" xmlns="http://www.w3.org/2000/svg" xmlns:xlink="http://www.w3.org/1999/xlink" width="16" height="16" viewBox="0 0 16 16">
<path fill="#444" d="M15.813 2.388c0 0-2.063-2.225-2.075-2.225-0.125-0.1-0.287-0.163-0.488-0.163-0.088 0-0.162 0.025-0.238 0.087-0.125 0.075-0.238 0.188-0.325 0.3l-2 2c-0.25 0.25-0.25 0.688 0 0.938s0.688 0.25 0.938 0l0.938-0.938v5.112c0 0.425 0.25 0.688 0.688 0.688s0.688-0.25 0.688-0.688v-5.112l0.938 0.938c0.25 0.25 0.688 0.25 0.938 0s0.25-0.688 0-0.938zM10.1 7.625c0.275-0.588 0.425-1.263 0.425-1.987 0-2.425-1.75-4.362-3.875-4.362s-3.875 1.938-3.875 4.362c0 0.713 0.15 1.388 0.425 1.987-1.825 0.588-3.2 2.325-3.2 4.325v3.313c0 0.438 0.3 0.738 0.738 0.738 0.363 0 0.738-0.275 0.738-0.738v-3.313c0-1.537 1.15-2.813 2.625-3.025 0.688 0.675 1.575 1.075 2.55 1.075 0.963 0 1.85-0.4 2.538-1.063 1.463 0.238 2.575 1.5 2.575 3.025v3.313c0 0.438 0.3 0.738 0.738 0.738 0.387 0 0.713-0.287 0.8-0.688v-3.375c0-2-1.363-3.738-3.2-4.325zM6.65 8.425c-1.338 0-2.375-1.287-2.375-2.775s1.037-2.775 2.375-2.775 2.375 1.288 2.375 2.775-1.037 2.775-2.375 2.775z"></path>
</svg>
