<?xml version="1.0" encoding="utf-8"?>
<!-- Generated by IcoMoon.io -->
<!DOCTYPE svg PUBLIC "-//W3C//DTD SVG 1.1//EN" "http://www.w3.org/Graphics/SVG/1.1/DTD/svg11.dtd">
<svg version="1.1" xmlns="http://www.w3.org/2000/svg" xmlns:xlink="http://www.w3.org/1999/xlink" width="16" height="16" viewBox="0 0 16 16">
<path fill="#b0b0b0" d="M10.063 0h-7.237c-0.575 0-1.038 0.463-1.038 1.038v13.938c0 0.575 0.462 1.037 1.038 1.037h10.325c0.575 0 1.037-0.463 1.037-1.037v-10.85l-4.125-4.125zM13.162 14.963h-10.325v-13.925h5.625v2.987c0 0.95 0.775 1.725 1.725 1.725h2.988l-0.012 9.213zM10.175 4.588c-0.313 0-0.575-0.263-0.575-0.575v-2.975h0.025l3.525 3.525v0.025h-2.975zM3.875 8h1.55c0.7 0 1.075 0.475 1.075 1.025 0 0.563-0.375 1.012-1.075 1.012h-0.75v1.050h-0.8v-3.088zM5.313 8.675h-0.65v0.7h0.65c0.213 0 0.375-0.137 0.375-0.338 0-0.225-0.162-0.363-0.375-0.363zM6.675 8h1.3c0.975 0 1.675 0.588 1.675 1.55s-0.7 1.55-1.675 1.55h-1.3v-3.1zM7.975 10.4c0.537 0 0.863-0.4 0.863-0.85 0-0.475-0.287-0.85-0.85-0.85h-0.5v1.7c0 0 0.487 0 0.487 0zM9.863 8h2.262v0.675h-1.463v0.512h1.438v0.675h-1.438v1.225h-0.8v-3.088z"></path>
</svg>
