<?xml version="1.0" encoding="utf-8"?>
<!-- Generated by IcoMoon.io -->
<!DOCTYPE svg PUBLIC "-//W3C//DTD SVG 1.1//EN" "http://www.w3.org/Graphics/SVG/1.1/DTD/svg11.dtd">
<svg version="1.1" xmlns="http://www.w3.org/2000/svg" xmlns:xlink="http://www.w3.org/1999/xlink" width="16" height="16" viewBox="0 0 16 16">
<path fill="#444" d="M3.175 0.863c0 0.875 0 1.738 0 2.625 0.112 0 4.45 0 6.513 0 1.825 0 3.262 1.163 3.613 2.9 0.45 2.1-1.188 4.188-3.338 4.238-1.425 0.025-4.338 0-4.4 0 0-0.6 0-1.213 0-1.875-1.875 1.075-3.7 2.125-5.563 3.2 1.85 1.075 3.675 2.125 5.55 3.2 0-0.662 0-1.262 0-1.887 0.138 0 3.163 0.025 4.575-0.012 2.825-0.088 5.325-2.313 5.787-5.1 0.55-3.375-1.525-6.45-4.85-7.175-0.375-0.088-0.762-0.125-1.15-0.125-2.188-0.012-6.662 0-6.737 0.012z"></path>
</svg>
