<?xml version="1.0" encoding="utf-8"?>
<!-- Generated by IcoMoon.io -->
<!DOCTYPE svg PUBLIC "-//W3C//DTD SVG 1.1//EN" "http://www.w3.org/Graphics/SVG/1.1/DTD/svg11.dtd">
<svg version="1.1" xmlns="http://www.w3.org/2000/svg" xmlns:xlink="http://www.w3.org/1999/xlink" width="16" height="16" viewBox="0 0 16 16">
<path fill="#505050" d="M11.875 9.35v5.625h-10.325v-13.95h5.625v2.987c0 0.95 0.775 1.725 1.725 1.725h0.8l1.15-1.15h-1.963c-0.313 0-0.575-0.263-0.575-0.575v-2.987h0.025l3.037 3.013 0.725-0.725-3.325-3.325h-7.237c-0.563 0-1.025 0.463-1.025 1.038v13.938c0 0.575 0.463 1.037 1.038 1.037h10.325c0.575 0 1.037-0.463 1.037-1.037v-6.662l-1.037 1.050zM6.013 11.863l-0.338 1.287h-1.475l-1.487-5.675h1.4l0.8 3.775c0.037 0.162 0.063 0.375 0.075 0.65h0.013c0.013-0.2 0.050-0.425 0.112-0.662l1.025-3.763h1.375l0.088 0.338-0.963 0.962-0.625 3.088zM9.525 11.675l-0.975 0.2c0 0.012 0 0.012 0 0.025h-0.012c0-0.012 0-0.012 0-0.025l-1.025 0.2 0.275 1.075h1.412l0.425-1.575-0.1 0.1zM7.225 11.1l1.8-0.363 6.463-6.463-1.438-1.438-6.463 6.45-0.362 1.813z"></path>
</svg>
