<?xml version="1.0" encoding="utf-8"?>
<!-- Generated by IcoMoon.io -->
<!DOCTYPE svg PUBLIC "-//W3C//DTD SVG 1.1//EN" "http://www.w3.org/Graphics/SVG/1.1/DTD/svg11.dtd">
<svg version="1.1" xmlns="http://www.w3.org/2000/svg" xmlns:xlink="http://www.w3.org/1999/xlink" width="16" height="16" viewBox="0 0 16 16">
<path fill="#444" d="M15.488 14.75h-8.3l8.688-8.675c0.163-0.162 0.163-0.4 0-0.563l-4.863-4.862c-0.162-0.162-0.412-0.162-0.575 0l-10.313 10.325c-0.163 0.162-0.163 0.425 0 0.575l3.95 3.887c0.075 0.075 0.175 0.063 0.287 0.063h11.125c0.225 0 0.412-0.15 0.412-0.375s-0.188-0.375-0.412-0.375zM10.725 1.525l4.287 4.287-6.213 6.213-4.287-4.287 6.213-6.213zM6.025 14.75h-1.5l-3.538-3.512 2.95-2.938 4.287 4.275-2.2 2.175z"></path>
</svg>
