<?xml version="1.0" encoding="utf-8"?>
<!-- Generated by IcoMoon.io -->
<!DOCTYPE svg PUBLIC "-//W3C//DTD SVG 1.1//EN" "http://www.w3.org/Graphics/SVG/1.1/DTD/svg11.dtd">
<svg version="1.1" xmlns="http://www.w3.org/2000/svg" xmlns:xlink="http://www.w3.org/1999/xlink" width="16" height="16" viewBox="0 0 16 16">
<path fill="#444" d="M16 5h-9v-2h9v2zM16 6.25h-9v0.75h9v-0.75zM2.112 3.538h2.413c0.162 0 0.3 0.138 0.3 0.313v2.837c0 0.175-0.138 0.313-0.3 0.313h-4.225c-0.163 0-0.3-0.138-0.3-0.313v-3.538c0-0.087 0.063-0.15 0.15-0.15h1.575c0.063 0 0.1 0.025 0.137 0.075l0.25 0.462zM16 9h-9v2h9v-2zM16 12.25h-9v0.75h9v-0.75zM2.112 9.537h2.413c0.162 0 0.3 0.137 0.3 0.313v2.838c0 0.175-0.138 0.313-0.3 0.313h-4.225c-0.163 0-0.3-0.137-0.3-0.313v-3.537c0-0.088 0.063-0.15 0.15-0.15h1.575c0.063 0 0.1 0.025 0.137 0.075l0.25 0.463z"></path>
</svg>
