<?xml version="1.0" encoding="utf-8"?>
<!-- Generated by IcoMoon.io -->
<!DOCTYPE svg PUBLIC "-//W3C//DTD SVG 1.1//EN" "http://www.w3.org/Graphics/SVG/1.1/DTD/svg11.dtd">
<svg version="1.1" xmlns="http://www.w3.org/2000/svg" xmlns:xlink="http://www.w3.org/1999/xlink" width="16" height="16" viewBox="0 0 16 16">
<path fill="#d0d0d0" d="M16 0h-16v3h16v-3zM12.575 13.5h-1.875l-0.025-0.050-0.050-0.050c-0.050-0.050-0.113-0.137-0.15-0.2 0.088-0.012 0.225-0.025 0.425-0.025 0.525 0 1.125 0.113 1.613 0.313l0.063 0.012zM11.162 3.5h4.338v1.7l-0.725-0.2-0.2-0.050-0.175 0.1c0 0-0.4 0.213-0.813 0.412 0-0.025 0-0.050 0.012-0.075l0.125-0.938-0.838 0.463-0.55 0.25-0.188 0.088-0.088 0.237c-0.050 0.112-0.25 0.588-0.6 0.875-0.063-0.15-0.125-0.425-0.188-0.9-0.088-0.575-0.1-1.15-0.1-1.163l-0.012-0.8zM14.375 8.787l0.85-0.6 0.275-0.2v1.513l-0.15-0.037c0 0-0.563-0.15-1.088-0.375-0.363-0.15-0.563-0.275-0.675-0.35 0.063-0.012 0.137-0.025 0.262-0.025 0.15 0 0.287 0.012 0.325 0.025l0.2 0.050zM15.5 7.35l-0.5-0.075c0 0-0.238-0.037-0.463-0.138 0.113-0.188 0.475-0.55 0.963-0.9v1.112zM8.988 6.725c-0.063 0.5-0.137 0.763-0.188 0.9-0.375-0.138-0.613-0.563-0.775-1h0.975c0 0.037-0.012 0.063-0.012 0.1zM15.5 10.363v3.137h-2l-0.238-0.45c0.037 0.012 0.075 0.012 0.088 0.025l0.225 0.075 0.637-0.4 1.15-0.725-1.338-0.2c-1.025-0.162-1.725-0.575-1.875-0.762 0 0 0 0 0 0 0.113-0.088 0.287-0.137 0.5-0.137 0.463 0 0.95 0.225 1.063 0.287l0.275 0.162 0.25-0.175 1.25-0.825 0.012-0.012zM5.375 13.5h-4.875v-10h10.213l-0.412 0.475-1.1 1.288-0.1 0.112h-1.338l-0.112-1.487-0.85 1.487h-0.8c-0.35 0-0.625 0.275-0.625 0.625s0.275 0.625 0.625 0.625h0.075l-0.063 0.1-0.138 0.213 0.1 0.225c0.013 0.025 0.013 0.050 0.037 0.088 0.075 0.213 0.263 0.7 0.412 1.238 0.162 0.588 0.213 0.938 0.225 1.113-0.213-0.113-0.313-0.4-0.338-0.463v0l-0.162-0.55-0.525 0.175-1 0.375 0.1 0.45 0.375 1.488-0.25 0.012v0.463c-0.013 0.65 0.188 1.15 0.375 1.588l0.025 0.050c0.037 0.113 0.088 0.213 0.125 0.313z"></path>
<path fill="#707070" d="M9.7 14.475l-0.037-0.050c0-0.012-0.512-0.738-1.088-0.75l0.225 0.675-0.225-0.063c-0.012 0-1.138-0.287-2.375-0.287-0.075 0-0.15 0-0.225 0h-0.125l-0.013-0.125c-0.025-0.3-0.138-0.575-0.275-0.887-0.175-0.412-0.362-0.875-0.35-1.45v-0.113l0.35-0.025-0.513-2.025 0.838-0.313 0.037 0.137c0.013 0.037 0.225 0.825 0.912 0.825h0.025c0.037 0 0.075-0.012 0.088-0.050 0.237-0.363-0.263-2.013-0.638-2.963l-0.025-0.050 1.087-1.837 0.025 0.4c0 0.025 0.2 2.388 1.575 2.512 0.3-0.188 0.45-1.537 0.475-2.45v-0.050l1.35-1.563 0.012 0.325c0.037 1.225 0.275 2.525 0.575 2.525 0.012 0 0.037 0 0.063-0.013 0.675-0.325 1-1.237 1-1.25l0.012-0.050 0.8-0.375-0.025 0.225c-0.025 0.2-0.025 0.513 0.075 0.612 0.012 0.013 0.037 0.025 0.050 0.025 0.025 0 0.063-0.013 0.1-0.025 0.525-0.25 1.125-0.563 1.125-0.563l0.050-0.025 1.075 0.3-0.225 0.15c-0.512 0.338-1.338 1.025-1.338 1.412 0 0.075 0.025 0.125 0.1 0.175 0.338 0.2 0.725 0.25 0.725 0.263l0.3 0.050-0.95 0.688-0.050-0.012c0 0-0.188-0.037-0.4-0.037-0.313 0-0.688 0.063-0.738 0.35-0.063 0.363 1.238 0.875 2.138 1.113l0.275 0.075-1.55 1.012-0.063-0.037c-0.012 0-0.637-0.338-1.25-0.338-0.287 0-0.537 0.075-0.725 0.213-0.213 0.162-0.175 0.3-0.162 0.338 0.113 0.425 1.125 0.925 2.213 1.088l0.338 0.050-0.775 0.475-0.050-0.012c0 0-0.287-0.088-0.512-0.088-0.125 0-0.213 0.025-0.238 0.063-0.012 0.012-0.037 0.075 0.063 0.25l0.162 0.3-0.313-0.125c-0.512-0.2-1.162-0.325-1.75-0.325s-0.825 0.125-0.838 0.188c-0.063 0.25 0.188 0.588 0.287 0.688l0.012 0.012 0.5 0.875-1.2-0.063z"></path>
<path fill="#d0d0d0" d="M13.813 9.938c-0.050-0.012-0.125-0.025-0.2-0.037s-0.162-0.025-0.262-0.037c-0.1-0.012-0.2-0.012-0.313-0.025s-0.225-0.012-0.35-0.012-0.25 0-0.375 0-0.262 0.012-0.387 0.012-0.512 0.025-0.75 0.050c-0.238 0.025-0.463 0.050-0.65 0.075-0.088 0.012-0.175 0.025-0.238 0.037l3.35-3.25-0.063-0.063-3.975 3.613c0.088-0.45 0.25-1.25 0.387-2.050 0.113-0.6 0.2-1.213 0.262-1.675 0.012-0.112 0.025-0.225 0.037-0.313s0.025-0.175 0.025-0.237c0.012-0.138 0.025-0.213 0.025-0.213l-0.1-0.013c0 0-0.012 0.075-0.025 0.213-0.012 0.063-0.025 0.15-0.037 0.237-0.012 0.1-0.025 0.2-0.050 0.313-0.063 0.45-0.175 1.063-0.3 1.662-0.2 1.037-0.45 2.063-0.512 2.338l-1.313 1.188c0-0.113 0.012-0.238 0.012-0.387 0-0.25-0.013-0.537-0.037-0.838-0.013-0.162-0.025-0.313-0.050-0.475s-0.050-0.325-0.075-0.488-0.063-0.313-0.088-0.475c-0.025-0.162-0.050-0.313-0.088-0.463s-0.063-0.287-0.1-0.425c-0.037-0.137-0.075-0.275-0.1-0.388-0.050-0.237-0.112-0.438-0.15-0.575s-0.063-0.213-0.063-0.213l-0.1 0.025c0 0 0.013 0.075 0.050 0.213s0.088 0.338 0.138 0.575c0.025 0.125 0.063 0.25 0.088 0.388 0.037 0.137 0.063 0.275 0.088 0.425s0.050 0.3 0.075 0.463c0.037 0.15 0.050 0.313 0.075 0.475 0.013 0.162 0.037 0.313 0.050 0.475 0.013 0.15 0.025 0.313 0.037 0.463 0.013 0.3 0.025 0.588 0.013 0.825 0 0.238-0.025 0.438-0.037 0.575 0 0.025-0.013 0.063-0.013 0.088l-0.763 0.688c0-0.025 0-0.050 0-0.075-0.013-0.313-0.125-0.7-0.275-1.075-0.3-0.738-0.75-1.4-0.75-1.4l-0.088 0.063c0 0 0.1 0.162 0.237 0.425 0.138 0.25 0.313 0.613 0.438 0.975s0.213 0.75 0.213 1.025c0 0.075-0.013 0.137-0.013 0.188-0.013 0.037-0.013 0.075-0.013 0.1l-2.987 2.713 0.35 0.362 3.25-3.137c0.075-0.012 0.175-0.012 0.3-0.012 0.075 0 0.15 0 0.225 0.012 0.088 0.012 0.163 0.025 0.25 0.037s0.175 0.037 0.262 0.063c0.088 0.025 0.175 0.063 0.262 0.088 0.075 0.025 0.162 0.063 0.25 0.1 0.075 0.050 0.162 0.088 0.238 0.125s0.15 0.088 0.213 0.125c0.075 0.037 0.125 0.088 0.188 0.125 0.050 0.037 0.113 0.075 0.15 0.113 0.037 0.025 0.075 0.063 0.113 0.088 0.063 0.063 0.1 0.088 0.1 0.088l0.075-0.075c0 0-0.037-0.037-0.1-0.088-0.025-0.025-0.075-0.063-0.113-0.1s-0.088-0.075-0.15-0.125c-0.063-0.037-0.125-0.088-0.188-0.137-0.063-0.037-0.137-0.088-0.213-0.137-0.088-0.050-0.162-0.088-0.25-0.137s-0.175-0.088-0.262-0.125c-0.088-0.037-0.188-0.075-0.275-0.1-0.1-0.025-0.188-0.063-0.275-0.075-0.088-0.025-0.175-0.037-0.263-0.050s-0.162-0.025-0.237-0.025c-0.025 0-0.050 0-0.075 0l0.763-0.738c0.025 0 0.050-0.012 0.088-0.012 0.113 0 0.275-0.012 0.475-0.012s0.438 0.012 0.688 0.025c0.25 0.012 0.525 0.037 0.787 0.063 0.275 0.037 0.537 0.063 0.787 0.1s0.488 0.075 0.688 0.1c0.4 0.075 0.662 0.113 0.662 0.113l0.025-0.1c0 0-0.262-0.050-0.662-0.125-0.2-0.037-0.438-0.088-0.688-0.125-0.25-0.050-0.525-0.088-0.787-0.125s-0.537-0.075-0.787-0.1c-0.262-0.025-0.5-0.037-0.7-0.050-0.113-0.012-0.213-0.012-0.313-0.012l1.363-1.325v0.012c0 0 0.25-0.063 0.625-0.125 0.188-0.037 0.4-0.075 0.637-0.1s0.488-0.050 0.738-0.075c0.125-0.012 0.25-0.025 0.375-0.025s0.25-0.012 0.363-0.012 0.225 0 0.338 0c0.1 0 0.2 0 0.3 0.012s0.188 0.012 0.262 0.025c0.075 0 0.15 0.012 0.2 0.025 0.113 0.012 0.175 0.025 0.175 0.025l0.025-0.1c0.012 0-0.050-0.012-0.162-0.037z"></path>
</svg>
