<?xml version="1.0" encoding="utf-8"?>
<!-- Generated by IcoMoon.io -->
<!DOCTYPE svg PUBLIC "-//W3C//DTD SVG 1.1//EN" "http://www.w3.org/Graphics/SVG/1.1/DTD/svg11.dtd">
<svg version="1.1" xmlns="http://www.w3.org/2000/svg" xmlns:xlink="http://www.w3.org/1999/xlink" width="16" height="16" viewBox="0 0 16 16">
<path fill="#444" d="M13.613 5.162c0.287-0.513 0.463-1.138 0.463-1.788 0-1.875-1.363-3.375-3-3.375s-3 1.5-3 3.375c0 0.663 0.175 1.275 0.463 1.788-0.45 0.15-0.85 0.388-1.2 0.7-0.55-0.825-1.438-1.362-2.413-1.362-1.638 0-3 1.5-3 3.375 0 0.662 0.175 1.275 0.462 1.787-1.375 0.463-2.388 1.762-2.388 3.263v2.35c0 0.425 0.3 0.725 0.725 0.725 0.412 0 0.725-0.325 0.725-0.725v-2.35c0-1.1 0.863-1.975 1.975-1.975h0.275c0.375 0.188 0.788 0.3 1.225 0.3s0.85-0.113 1.225-0.3h0.225c1.1 0 1.975 0.863 1.975 1.975v2.35c0 0.425 0.3 0.725 0.725 0.725 0.363 0 0.688-0.275 0.762-0.65l0.012-0.037v-2.387c0-0.762-0.262-1.475-0.7-2.050h6.1c0.412 0 0.75-0.338 0.75-0.75v-1.7c0-1.5-1.012-2.8-2.388-3.263zM4.925 9.75c-0.813 0-1.5-0.863-1.5-1.875s0.688-1.875 1.5-1.875 1.5 0.862 1.5 1.875-0.688 1.875-1.5 1.875zM11.075 1.5c0.813 0 1.5 0.862 1.5 1.875s-0.688 1.875-1.5 1.875-1.5-0.862-1.5-1.875 0.688-1.875 1.5-1.875zM14.5 9.375h-6.9v-0.95c0-1.1 0.863-1.975 1.975-1.975h0.275c0.375 0.188 0.787 0.3 1.225 0.3s0.85-0.112 1.225-0.3h0.225c1.1 0 1.975 0.862 1.975 1.975v0.95z"></path>
</svg>
