<?xml version="1.0" encoding="utf-8"?>
<!-- Generated by IcoMoon.io -->
<!DOCTYPE svg PUBLIC "-//W3C//DTD SVG 1.1//EN" "http://www.w3.org/Graphics/SVG/1.1/DTD/svg11.dtd">
<svg version="1.1" xmlns="http://www.w3.org/2000/svg" xmlns:xlink="http://www.w3.org/1999/xlink" width="16" height="16" viewBox="0 0 16 16">
<path fill="#444" d="M15 1v14c0 0.55-0.45 1-1 1h-11c-1.1 0-2-0.9-2-2v-9c0-0.55 0.45-1 1-1h1v-3c0-0.55 0.45-1 1-1h10c0.55 0 1 0.45 1 1zM14 1h-10v14h10v-14zM13 13.5c0-0.275-0.225-0.5-0.5-0.5h-7c-0.275 0-0.5 0.225-0.5 0.5s0.225 0.5 0.5 0.5h7c0.275 0 0.5-0.225 0.5-0.5zM13 11.5c0-0.275-0.225-0.5-0.5-0.5h-7c-0.275 0-0.5 0.225-0.5 0.5s0.225 0.5 0.5 0.5h7c0.275 0 0.5-0.225 0.5-0.5zM13 9.5c0-0.275-0.225-0.5-0.5-0.5h-7c-0.275 0-0.5 0.225-0.5 0.5s0.225 0.5 0.5 0.5h7c0.275 0 0.5-0.225 0.5-0.5zM5.912 7.775l1.713-2.575 2.075 1.462c0.113 0.075 0.25 0.112 0.375 0.088 0.137-0.025 0.25-0.1 0.325-0.213l2.5-3.75c0.15-0.225 0.088-0.538-0.137-0.688s-0.537-0.087-0.688 0.138l-2.213 3.313-2.075-1.462c-0.112-0.075-0.25-0.112-0.375-0.088-0.138 0.025-0.25 0.1-0.325 0.213l-2 3c-0.15 0.225-0.088 0.537 0.138 0.688 0.088 0.063 0.188 0.088 0.275 0.088 0.162 0.012 0.325-0.063 0.412-0.213z"></path>
</svg>
