<?xml version="1.0" encoding="utf-8"?>
<!-- Generated by IcoMoon.io -->
<!DOCTYPE svg PUBLIC "-//W3C//DTD SVG 1.1//EN" "http://www.w3.org/Graphics/SVG/1.1/DTD/svg11.dtd">
<svg version="1.1" xmlns="http://www.w3.org/2000/svg" xmlns:xlink="http://www.w3.org/1999/xlink" width="16" height="16" viewBox="0 0 16 16">
<path fill="#444" d="M14.988 10.037h-4.45v-1.012c0-0.275-0.225-0.512-0.512-0.512h-0.25v-1.75c1.063-0.612 1.775-1.763 1.775-3.087 0.012-1.962-1.575-3.55-3.55-3.55s-3.563 1.587-3.563 3.55c0 1.325 0.713 2.462 1.775 3.087v1.738h-0.25c-0.275 0-0.513 0.225-0.513 0.512v1.012h-4.438c-0.563 0-1.012 0.463-1.012 1.012v2.537c0 0.563 0.463 1.012 1.012 1.012h0.25v0.375c0 0.5 0.438 0.887 0.95 0.887h11.55c0.537 0 0.95-0.4 0.95-0.887v-0.375h0.25c0.563 0 1.012-0.463 1.012-1.012v-2.525c0.037-0.563-0.425-1.012-0.988-1.012zM5.475 3.688c0-1.4 1.138-2.538 2.537-2.538s2.537 1.137 2.537 2.538c0 0.9-0.488 1.737-1.275 2.2l-0.512 0.287v2.325h-1.525v-2.338l-0.513-0.287c-0.787-0.438-1.263-1.287-1.25-2.188zM9.525 9.525v0.512h-3.050v-0.512h3.050zM13.95 14.988c0 0.063-0.075 0.125-0.188 0.125h-11.55c-0.1 0-0.188-0.063-0.188-0.125v-0.375h11.925c0 0 0 0.375 0 0.375zM14.988 13.588h-13.975v-2.537h13.975v2.537zM8.537 4.313h-1.050l-0.125 0.375h-0.713l0.95-2.538h0.825l0.963 2.538h-0.713l-0.137-0.375zM7.65 3.75h0.713l-0.363-1.025-0.35 1.025z"></path>
</svg>
