<?xml version="1.0" encoding="utf-8"?>
<!-- Generated by IcoMoon.io -->
<!DOCTYPE svg PUBLIC "-//W3C//DTD SVG 1.1//EN" "http://www.w3.org/Graphics/SVG/1.1/DTD/svg11.dtd">
<svg version="1.1" xmlns="http://www.w3.org/2000/svg" xmlns:xlink="http://www.w3.org/1999/xlink" width="16" height="16" viewBox="0 0 16 16">
<path fill="#444" d="M15.675 7.6l-7.425-7.438c-0.213-0.225-0.575-0.225-0.8 0 0 0 0 0 0 0l-1.212 1.212c-0.213 0.2-0.225 0.55-0.013 0.762 0 0 0.013 0.013 0.013 0.013l4.125 4.1h-9.637c-0.325 0.025-0.588 0.287-0.6 0.612v2.275c0.013 0.325 0.275 0.588 0.6 0.613h9.637l-4.125 4.1c-0.213 0.213-0.225 0.563-0.013 0.775 0 0 0.013 0.012 0.013 0.012l1.2 1.2c0.213 0.225 0.575 0.225 0.8 0 0 0 0 0 0 0l7.438-7.438c0.213-0.225 0.213-0.575 0-0.8z"></path>
</svg>
