<?xml version="1.0" encoding="utf-8"?>
<!-- Generated by IcoMoon.io -->
<!DOCTYPE svg PUBLIC "-//W3C//DTD SVG 1.1//EN" "http://www.w3.org/Graphics/SVG/1.1/DTD/svg11.dtd">
<svg version="1.1" xmlns="http://www.w3.org/2000/svg" xmlns:xlink="http://www.w3.org/1999/xlink" width="16" height="16" viewBox="0 0 16 16">
<path fill="#444" d="M12.188 7.412c1.063-0.75 1.813-2.013 1.813-3.4 0-1.962-1.275-3.962-4.725-4.013h-7.938v1.363c1.325 0 2 0.5 2 1.788v9.775c0 1.125-0.375 1.738-2 1.738v1.337h7.412c4.225 0 5.912-2.4 5.912-4.688 0-1.7-0.938-3.113-2.475-3.9zM6.662 2h1.4c1.575 0 2.75 0.712 2.75 2.25s-0.963 2.412-2.338 2.412h-1.813v-4.662zM8.463 14h-1.8v-5.338h1.862c1.512 0.012 2.612 1.088 2.612 2.45s-0.813 2.887-2.675 2.887z"></path>
</svg>
