<?xml version="1.0" encoding="utf-8"?>
<!-- Generated by IcoMoon.io -->
<!DOCTYPE svg PUBLIC "-//W3C//DTD SVG 1.1//EN" "http://www.w3.org/Graphics/SVG/1.1/DTD/svg11.dtd">
<svg version="1.1" xmlns="http://www.w3.org/2000/svg" xmlns:xlink="http://www.w3.org/1999/xlink" width="16" height="16" viewBox="0 0 16 16">
<path fill="#404040" d="M6.4 2.862l-0.65-1.163c-0.072-0.115-0.195-0.192-0.336-0.2l-4.026-0c-0.213 0.013-0.381 0.186-0.387 0.399l-0 9.038c-0 0.007-0 0.016-0 0.025 0 0.431 0.346 0.781 0.775 0.787l11.063 0c0.002 0 0.004 0 0.006 0 0.317 0 0.59-0.194 0.704-0.47l2.352-5.618c0.065-0.111 0.104-0.245 0.104-0.388 0-0.425-0.342-0.77-0.766-0.775h-1.875v-0.837c0-0.007 0-0.016 0-0.025 0-0.431-0.346-0.781-0.775-0.787l-6.188-0zM12.412 3.8v0.7h-7.175l-3.3 5.925v-7.975h3.15l0.775 1.35zM14.975 5.45l-2.237 5.362h-9.95l3-5.362h9.188z"></path>
<path fill="#303030" d="M7.263 14.5h-6.775c-0.269 0-0.487-0.218-0.487-0.488v-6.775c0-0.269 0.218-0.487 0.487-0.487h6.775c0.269 0 0.487 0.218 0.487 0.487v6.787c-0.007 0.264-0.223 0.475-0.487 0.475-0 0-0 0-0 0z"></path>
<path fill="#d0d0d0" d="M0.725 7.475v6.3h6.3v-6.3zM6.375 11.037h-5v-0.825h5z"></path>
</svg>
