<?xml version="1.0" encoding="utf-8"?>
<!-- Generated by IcoMoon.io -->
<!DOCTYPE svg PUBLIC "-//W3C//DTD SVG 1.1//EN" "http://www.w3.org/Graphics/SVG/1.1/DTD/svg11.dtd">
<svg version="1.1" xmlns="http://www.w3.org/2000/svg" xmlns:xlink="http://www.w3.org/1999/xlink" width="16" height="16" viewBox="0 0 16 16">
<path fill="#444" d="M8 0c-4.412 0-8 3.587-8 8s3.587 8 8 8 8-3.588 8-8-3.588-8-8-8z"></path>
<path fill="#d0d0d0" d="M12.912 11.037c0.125 0.125 0.125 0.325 0 0.438l-1.425 1.425c-0.125 0.125-0.325 0.125-0.438 0l-3.050-3.037-3.038 3.037c-0.125 0.125-0.325 0.125-0.438 0l-1.438-1.412c-0.125-0.125-0.125-0.325 0-0.438l3.050-3.050-3.050-3.037c-0.125-0.125-0.125-0.325 0-0.438l1.425-1.425c0.125-0.125 0.325-0.125 0.438 0l3.050 3.038 3.037-3.038c0.125-0.125 0.325-0.125 0.438 0l1.425 1.425c0.125 0.125 0.125 0.325 0 0.438l-3.037 3.038 3.050 3.037z"></path>
</svg>
