<?xml version="1.0" encoding="utf-8"?>
<!-- Generated by IcoMoon.io -->
<!DOCTYPE svg PUBLIC "-//W3C//DTD SVG 1.1//EN" "http://www.w3.org/Graphics/SVG/1.1/DTD/svg11.dtd">
<svg version="1.1" xmlns="http://www.w3.org/2000/svg" xmlns:xlink="http://www.w3.org/1999/xlink" width="16" height="16" viewBox="0 0 16 16">
<path fill="#444" d="M5.775 9.5c-0.625 0-1.15-0.2-1.537-0.613-0.4-0.4-0.6-0.938-0.6-1.588 0-0.688 0.2-1.25 0.6-1.675s0.938-0.638 1.6-0.638c0.625 0 1.138 0.2 1.525 0.612s0.588 0.938 0.588 1.612c0 0.688-0.2 1.238-0.6 1.65-0.4 0.425-0.925 0.637-1.575 0.637zM5.825 5.838c-0.35 0-0.625 0.125-0.825 0.388s-0.313 0.6-0.313 1.025 0.1 0.775 0.313 1.025c0.2 0.25 0.475 0.375 0.8 0.375 0.338 0 0.612-0.125 0.813-0.363 0.2-0.25 0.3-0.588 0.3-1.013 0-0.45-0.1-0.8-0.287-1.050-0.2-0.25-0.463-0.388-0.8-0.388zM11.75 9.275c-0.325 0.15-0.738 0.225-1.262 0.225-0.675 0-1.213-0.2-1.6-0.588s-0.575-0.912-0.575-1.575c0-0.7 0.213-1.263 0.65-1.688 0.438-0.438 1-0.65 1.7-0.65 0.425 0 0.787 0.050 1.088 0.162v0.938c-0.3-0.175-0.625-0.263-1.012-0.263-0.412 0-0.75 0.125-1 0.388s-0.375 0.6-0.375 1.050c0 0.425 0.125 0.75 0.363 1s0.563 0.375 0.963 0.375c0.387 0 0.738-0.088 1.063-0.275 0 0 0 0.9 0 0.9zM15 2.25h-15v10c0 0.55 0.45 1 1 1h9.5v-1.75c0-0.55 0.45-1 1-1h4.5v-7.25c0-0.55-0.45-1-1-1zM7 1.75l-0.85-1.5c-0.088-0.15-0.25-0.25-0.438-0.25h-5.213c-0.275 0-0.5 0.225-0.5 0.5v1.25h7zM15.5 11h-4c-0.275 0-0.5 0.225-0.5 0.5v4c0 0.275 0.225 0.5 0.5 0.5h4c0.275 0 0.5-0.225 0.5-0.5v-4c0-0.275-0.225-0.5-0.5-0.5zM15.25 13.938h-1.313v1.313h-0.875v-1.313h-1.313v-0.875h1.313v-1.313h0.875v1.313h1.313v0.875z"></path>
</svg>
