<?xml version="1.0" encoding="utf-8"?>
<!-- Generated by IcoMoon.io -->
<!DOCTYPE svg PUBLIC "-//W3C//DTD SVG 1.1//EN" "http://www.w3.org/Graphics/SVG/1.1/DTD/svg11.dtd">
<svg version="1.1" xmlns="http://www.w3.org/2000/svg" xmlns:xlink="http://www.w3.org/1999/xlink" width="16" height="16" viewBox="0 0 16 16">
<path fill="#444" d="M16 10.4v5.6h-16v-16h16v8.838l-3 3.463 0.063 0.7 0.738-0.063 2.2-2.537zM7.088 9c0.638-0.662 0.963-1.537 0.963-2.625 0-1.063-0.313-1.912-0.925-2.55-0.612-0.65-1.425-0.975-2.425-0.975-1.063 0-1.913 0.337-2.55 1.012s-0.962 1.563-0.962 2.65c0 1.037 0.313 1.875 0.95 2.525s1.45 0.963 2.45 0.963c1.025 0 1.862-0.338 2.5-1zM5.925 4.787c0.313 0.4 0.463 0.963 0.463 1.675 0 0.688-0.162 1.225-0.475 1.612-0.325 0.387-0.75 0.575-1.3 0.575-0.525 0-0.95-0.2-1.275-0.6s-0.487-0.938-0.487-1.625c0-0.675 0.163-1.213 0.487-1.625s0.762-0.612 1.325-0.612c0.537 0 0.95 0.2 1.263 0.6zM14.125 8.213c-0.5 0.3-1.037 0.45-1.662 0.45-0.65 0-1.137-0.2-1.525-0.6-0.375-0.4-0.563-0.925-0.563-1.6 0-0.7 0.2-1.25 0.613-1.662 0.4-0.412 0.9-0.612 1.563-0.612 0.6 0 1.2 0.138 1.575 0.412v-1.5c-0.375-0.175-1.012-0.25-1.7-0.25-1.1 0-1.988 0.35-2.675 1.038s-1.025 1.587-1.025 2.688c0 1.037 0.313 1.875 0.925 2.487 0.613 0.625 1.438 0.938 2.513 0.938 0.825 0 1.475-0.125 1.975-0.363v-1.425h-0.012zM12 12h-10.5v1h10.5v-1z"></path>
</svg>
