<?xml version="1.0" encoding="utf-8"?>
<!-- Generated by IcoMoon.io -->
<!DOCTYPE svg PUBLIC "-//W3C//DTD SVG 1.1//EN" "http://www.w3.org/Graphics/SVG/1.1/DTD/svg11.dtd">
<svg version="1.1" xmlns="http://www.w3.org/2000/svg" xmlns:xlink="http://www.w3.org/1999/xlink" width="16" height="16" viewBox="0 0 16 16">
<path fill="#444" d="M10.063 0h-7.237c-0.575 0-1.038 0.463-1.038 1.038v13.938c0 0.575 0.462 1.037 1.038 1.037h10.325c0.575 0 1.037-0.463 1.037-1.037v-10.85l-4.125-4.125zM13.162 14.963h-10.325v-13.925h5.625v2.987c0 0.95 0.775 1.725 1.725 1.725h2.988l-0.012 9.213zM10.175 4.588c-0.313 0-0.575-0.263-0.575-0.575v-2.975h0.025l3.525 3.525v0.025h-2.975zM8.887 10.063l1.625-1.625c0.25-0.25 0.25-0.638 0-0.888s-0.637-0.25-0.887 0l-1.625 1.625-1.625-1.625c-0.25-0.25-0.638-0.25-0.888 0s-0.25 0.637 0 0.887l1.625 1.625-1.625 1.625c-0.25 0.25-0.25 0.637 0 0.887 0.125 0.125 0.287 0.188 0.438 0.188 0.162 0 0.325-0.063 0.438-0.188l1.625-1.625 1.625 1.625c0.125 0.125 0.287 0.188 0.438 0.188s0.325-0.063 0.438-0.188c0.25-0.25 0.25-0.637 0-0.887l-1.6-1.625z"></path>
</svg>
