<?xml version="1.0" encoding="utf-8"?>
<!-- Generated by IcoMoon.io -->
<!DOCTYPE svg PUBLIC "-//W3C//DTD SVG 1.1//EN" "http://www.w3.org/Graphics/SVG/1.1/DTD/svg11.dtd">
<svg version="1.1" xmlns="http://www.w3.org/2000/svg" xmlns:xlink="http://www.w3.org/1999/xlink" width="16" height="16" viewBox="0 0 16 16">
<path fill="#444" d="M7.225 14.963h-5.675v-13.925h5.625v2.975c0 0.95 0.775 1.713 1.712 1.713h2.988v2.013h1.037v-3.612l-4.125-4.125h-7.237c-0.575 0-1.038 0.463-1.038 1.038v13.938c0 0.563 0.463 1.037 1.038 1.037h5.675v-1.050zM8.313 1.038h0.025l3.537 3.513v0.025h-2.988c-0.325 0-0.563-0.263-0.563-0.563v-2.975h-0.012zM15.488 13.425h-2.575v2.575h-1.037v-2.575h-2.588v-1.037h2.588v-2.575h1.037v2.575h2.575v1.037z"></path>
</svg>
