<?xml version="1.0" encoding="utf-8"?>
<!-- Generated by IcoMoon.io -->
<!DOCTYPE svg PUBLIC "-//W3C//DTD SVG 1.1//EN" "http://www.w3.org/Graphics/SVG/1.1/DTD/svg11.dtd">
<svg version="1.1" xmlns="http://www.w3.org/2000/svg" xmlns:xlink="http://www.w3.org/1999/xlink" width="16" height="16" viewBox="0 0 16 16">
<path fill="#444" d="M0.487 4.088c1.488 2.5 3.737 4.237 6.287 4.662 0.162-0.525 0.65-0.9 1.225-0.9s1.063 0.375 1.225 0.9c2.563-0.425 4.8-2.162 6.287-4.662 0 0 0 0 0.012 0v0c-0.125-0.050-0.25-0.088-0.375-0.088h-4.575c0-1.425-1.15-2.575-2.575-2.575s-2.575 1.15-2.575 2.575h-4.575c-0.137 0-0.262 0.037-0.362 0.088-0.013 0-0.013 0 0 0v0zM8 2.288c0.938 0 1.713 0.762 1.713 1.712h-3.425c0-0.95 0.775-1.712 1.712-1.712zM15.925 4.513c-1.575 2.587-3.95 4.388-6.65 4.812-0.088 0.625-0.625 1.1-1.275 1.1s-1.188-0.475-1.275-1.1c-1.713-0.275-3.3-1.1-4.638-2.325-0.013-0.013-0.038-0.037-0.050-0.050-0.050-0.037-0.087-0.088-0.137-0.138-0.038-0.037-0.063-0.063-0.1-0.1-0.025-0.025-0.050-0.050-0.075-0.075-0.613-0.625-1.175-1.338-1.65-2.125-0.050 0.112-0.075 0.225-0.075 0.35v8.85c0 0.475 0.388 0.863 0.863 0.863h14.275c0.475 0 0.863-0.387 0.863-0.863v-8.863c0-0.112-0.025-0.237-0.075-0.338zM4 13.425h-2.438c-0.238 0-0.425-0.188-0.425-0.425v-5.938c0.875 0.9 1.837 1.613 2.862 2.125v4.238zM14.85 13c0 0.238-0.188 0.425-0.425 0.425h-2.425v-4.238c1.025-0.512 1.988-1.213 2.85-2.112v5.925z"></path>
</svg>
