<?xml version="1.0" encoding="utf-8"?>
<!-- Generated by IcoMoon.io -->
<!DOCTYPE svg PUBLIC "-//W3C//DTD SVG 1.1//EN" "http://www.w3.org/Graphics/SVG/1.1/DTD/svg11.dtd">
<svg version="1.1" xmlns="http://www.w3.org/2000/svg" xmlns:xlink="http://www.w3.org/1999/xlink" width="16" height="16" viewBox="0 0 16 16">
<path fill="#444" d="M12.512 8.050v6.912h-10.325v-13.938h5.625v2.987c0 0.8 0.55 1.475 1.287 1.663l1.088-1.088h-0.662c-0.313 0-0.575-0.263-0.575-0.575v-2.987h0.025l2.375 2.375 0.725-0.725-2.65-2.688h-7.237c-0.563 0-1.025 0.463-1.025 1.038v13.938c0 0.575 0.462 1.037 1.038 1.037h10.325c0.575 0 1.037-0.463 1.037-1.037v-7.95l-1.050 1.038zM6.938 9.287l6.463-6.463 1.438 1.438-6.463 6.463-1.8 0.375 0.362-1.813z"></path>
</svg>
