<?xml version="1.0" encoding="utf-8"?>
<!-- Generated by IcoMoon.io -->
<!DOCTYPE svg PUBLIC "-//W3C//DTD SVG 1.1//EN" "http://www.w3.org/Graphics/SVG/1.1/DTD/svg11.dtd">
<svg version="1.1" xmlns="http://www.w3.org/2000/svg" xmlns:xlink="http://www.w3.org/1999/xlink" width="16" height="16" viewBox="0 0 16 16">
<path fill="#444" d="M8.838 9.25c0 0.3 0.075 0.4 0.075 0.625 0 0.588-0.438 1.238-1.3 1.238-0.888 0-1.65-0.75-1.65-2.162 0-2.763 3.4-3.088 3.4-4.7 0-0.725-0.537-1.325-1.813-1.325-0.7 0-1.35 0.237-1.912 0.6-0.275 0.188-0.625 0.275-0.975 0.275-0.75 0-1.375-0.513-1.375-1.35 0-0.237 0.050-0.438 0.138-0.625 0.625-1.225 2.975-1.825 4.463-1.825 3 0 4.837 1.512 4.837 3.675 0 3.4-3.887 3.65-3.887 5.575zM7.838 16c-1.025 0-1.888-0.863-1.888-1.887s0.862-1.887 1.888-1.887 1.887 0.863 1.887 1.887-0.863 1.887-1.888 1.887z"></path>
</svg>
