<?xml version="1.0" encoding="utf-8"?>
<!-- Generated by IcoMoon.io -->
<!DOCTYPE svg PUBLIC "-//W3C//DTD SVG 1.1//EN" "http://www.w3.org/Graphics/SVG/1.1/DTD/svg11.dtd">
<svg version="1.1" xmlns="http://www.w3.org/2000/svg" xmlns:xlink="http://www.w3.org/1999/xlink" width="16" height="16" viewBox="0 0 16 16">
<path fill="#444" d="M15.175 8.275h-2v-0.888c0-0.475-0.363-0.862-0.825-0.862h-0.65l-1 1h1.475v0.75h-7.65l-3.525 6.313v-8.5h3.363l0.825 1.438h2.013l-0.925-1h-0.513l-0.7-1.237c-0.075-0.125-0.213-0.213-0.362-0.213h-4.287c-0.225 0.013-0.412 0.2-0.412 0.425v9.637c0 0.475 0.362 0.863 0.825 0.863h11.8c0.338 0 0.637-0.2 0.762-0.5l2.5-5.988c0.313-0.563-0.088-1.238-0.713-1.238zM14.9 9.275l-2.388 5.725h-10.6l3.2-5.725h9.787zM11.5 4.75c-0.25-0.25-0.662-0.25-0.912 0l-0.912 0.912v-5c-0.012-0.412-0.262-0.662-0.675-0.662s-0.662 0.25-0.662 0.662v5l-0.925-0.912c-0.25-0.25-0.662-0.25-0.912 0s-0.25 0.662 0 0.912l2.025 2.162c0.113 0.1 0.275 0.162 0.475 0.162 0.088 0 0.15-0.025 0.225-0.088 0.113-0.075 2.275-2.237 2.275-2.237 0.25-0.25 0.25-0.662 0-0.912z"></path>
</svg>
