<?xml version="1.0" encoding="utf-8"?>
<!-- Generated by IcoMoon.io -->
<!DOCTYPE svg PUBLIC "-//W3C//DTD SVG 1.1//EN" "http://www.w3.org/Graphics/SVG/1.1/DTD/svg11.dtd">
<svg version="1.1" xmlns="http://www.w3.org/2000/svg" xmlns:xlink="http://www.w3.org/1999/xlink" width="16" height="16" viewBox="0 0 16 16">
<path fill="#444" d="M14.25 0l-0.313 1.25c-0.137 0-1.7-0.025-2.1 0.4-0.15 0.125-0.287 0.262-0.537 0.938s-0.65 1.913-1.188 3.712-1.037 3.587-1.512 5.35-0.5 1.963-0.588 2.313c-0.037 0.225 0.075 0.438 0.275 0.537 0.213 0.088 1.963 0.25 1.963 0.25l-0.25 1.25h-8.25l0.25-1.25c0 0 2.237 0.012 2.487-0.762 0.138-0.313 0.2-0.525 0.475-1.363 0.362-1.1 0.787-2.513 1.3-4.225s0.95-3.25 1.313-4.612c0.263-0.962 0.338-1.362 0.412-1.7s0-0.438-0.188-0.55c-0.5-0.325-2.050-0.287-2.050-0.287l0.25-1.25h8.25z"></path>
</svg>
