<?xml version="1.0" encoding="utf-8"?>
<!-- Generated by IcoMoon.io -->
<!DOCTYPE svg PUBLIC "-//W3C//DTD SVG 1.1//EN" "http://www.w3.org/Graphics/SVG/1.1/DTD/svg11.dtd">
<svg version="1.1" xmlns="http://www.w3.org/2000/svg" xmlns:xlink="http://www.w3.org/1999/xlink" width="16" height="16" viewBox="0 0 16 16">
<path fill="#444" d="M10.675 10.262c-0.637 0.887-1.613 1.45-2.713 1.45-1.088 0-2.063-0.563-2.688-1.425-1.15 0.475-1.975 1.613-1.975 2.912v2.438c0 0.213 0.138 0.363 0.362 0.363h8.613c0.213 0 0.363-0.137 0.425-0.363v-2.438c0-1.313-0.85-2.475-2.025-2.938zM7.963 11.125c-1.575 0-2.875-1.438-2.875-3.225s1.287-3.225 2.875-3.225 2.875 1.438 2.875 3.225-1.3 3.225-2.875 3.225zM5.475 3.45c0.15-0.325 0.225-0.688 0.225-1.075 0.013-1.325-0.938-2.375-2.087-2.375s-2.1 1.050-2.1 2.362c0 0.388 0.087 0.75 0.225 1.075-0.988 0.325-1.738 1.275-1.738 2.362v1.8c0 0.237 0.163 0.4 0.4 0.4 0.2 0 0.4-0.15 0.4-0.4v-1.8c0-0.838 0.625-1.525 1.425-1.638 0.375 0.362 0.85 0.588 1.388 0.588 0.525 0 1-0.213 1.375-0.575 0.263 0.025 0.513 0.138 0.725 0.287 0.225-0.175 0.475-0.325 0.725-0.45-0.275-0.25-0.6-0.45-0.963-0.563zM3.612 3.888c-0.725 0-1.288-0.7-1.288-1.513s0.563-1.512 1.288-1.512c0.725 0 1.288 0.7 1.288 1.512s-0.563 1.513-1.288 1.513zM14.262 3.45c0.15-0.325 0.225-0.688 0.225-1.075 0-1.325-0.95-2.375-2.1-2.375s-2.1 1.050-2.1 2.362c0 0.388 0.088 0.75 0.225 1.075-0.375 0.125-0.7 0.325-0.988 0.588 0.25 0.125 0.475 0.263 0.7 0.438 0.225-0.175 0.488-0.287 0.775-0.325 0.375 0.362 0.85 0.588 1.387 0.588 0.525 0 1-0.213 1.375-0.575 0.8 0.125 1.4 0.813 1.4 1.638v1.8c0 0.237 0.162 0.4 0.4 0.4 0.213 0 0.387-0.15 0.438-0.375v-1.813c0-1.088-0.738-2.038-1.738-2.35zM12.387 3.888c-0.725 0-1.287-0.7-1.287-1.513s0.563-1.512 1.287-1.512c0.725 0 1.287 0.7 1.287 1.512s-0.563 1.513-1.287 1.513z"></path>
</svg>
