<?xml version="1.0" encoding="utf-8"?>
<!-- Generated by IcoMoon.io -->
<!DOCTYPE svg PUBLIC "-//W3C//DTD SVG 1.1//EN" "http://www.w3.org/Graphics/SVG/1.1/DTD/svg11.dtd">
<svg version="1.1" xmlns="http://www.w3.org/2000/svg" xmlns:xlink="http://www.w3.org/1999/xlink" width="16" height="16" viewBox="0 0 16 16">
<path fill="#707070" d="M8 12.7c-0.65 0-1.287-0.050-1.875-0.162-1.013 1.012-2.35 1.713-3.888 2.050-0.238 0.037-0.5 0.088-0.762 0.113-0.137 0.012-0.275-0.075-0.313-0.213s0.075-0.225 0.175-0.325c0.563-0.525 1.238-0.938 1.462-2.838-1.712-1.050-2.8-2.6-2.8-4.338 0-3.163 3.575-5.7 8-5.7s8 2.55 8 5.7c0 3.162-3.575 5.713-8 5.713zM4.575 5.838c-0.638 0-1.138 0.513-1.138 1.138s0.513 1.138 1.138 1.138 1.138-0.513 1.138-1.138-0.5-1.138-1.138-1.138zM8 5.838c-0.638 0-1.138 0.513-1.138 1.138s0.513 1.138 1.138 1.138 1.137-0.513 1.137-1.138-0.5-1.138-1.138-1.138zM11.425 5.838c-0.637 0-1.137 0.513-1.137 1.138s0.512 1.138 1.137 1.138c0.637 0 1.137-0.513 1.137-1.138s-0.5-1.138-1.137-1.138z"></path>
</svg>
