<?xml version="1.0" encoding="utf-8"?>
<!-- Generated by IcoMoon.io -->
<!DOCTYPE svg PUBLIC "-//W3C//DTD SVG 1.1//EN" "http://www.w3.org/Graphics/SVG/1.1/DTD/svg11.dtd">
<svg version="1.1" xmlns="http://www.w3.org/2000/svg" xmlns:xlink="http://www.w3.org/1999/xlink" width="16" height="16" viewBox="0 0 16 16">
<path fill="#c0c0c0" d="M15.5 13.5h-15v-10h15v10zM16 0h-16v3h16v-3zM10.625 6c0-0.35-0.275-0.625-0.625-0.625h-4c-0.35 0-0.625 0.275-0.625 0.625s0.275 0.625 0.625 0.625h4c0.35 0 0.625-0.275 0.625-0.625z"></path>
<path fill="#707070" d="M9.7 14.475l-0.037-0.050c0-0.012-0.512-0.738-1.088-0.75l0.225 0.675-0.225-0.063c-0.012 0-1.138-0.287-2.375-0.287-0.075 0-0.15 0-0.225 0h-0.125l-0.013-0.125c-0.025-0.3-0.138-0.575-0.275-0.887-0.175-0.412-0.362-0.875-0.35-1.45v-0.113l0.35-0.025-0.513-2.025 0.838-0.313 0.037 0.137c0.013 0.037 0.225 0.825 0.912 0.825h0.025c0.037 0 0.075-0.012 0.088-0.050 0.237-0.363-0.263-2.013-0.638-2.963l-0.025-0.050 1.087-1.837 0.025 0.4c0 0.025 0.2 2.388 1.575 2.512 0.3-0.188 0.45-1.537 0.475-2.45v-0.050l1.35-1.563 0.012 0.325c0.037 1.225 0.275 2.525 0.575 2.525 0.012 0 0.037 0 0.063-0.013 0.675-0.325 1-1.237 1-1.25l0.012-0.050 0.8-0.375-0.025 0.225c-0.025 0.2-0.025 0.513 0.075 0.612 0.012 0.013 0.037 0.025 0.050 0.025 0.025 0 0.063-0.013 0.1-0.025 0.525-0.25 1.125-0.563 1.125-0.563l0.050-0.025 1.075 0.3-0.225 0.15c-0.512 0.338-1.338 1.025-1.338 1.412 0 0.075 0.025 0.125 0.1 0.175 0.338 0.2 0.725 0.25 0.725 0.263l0.3 0.050-0.95 0.688-0.050-0.012c0 0-0.188-0.037-0.4-0.037-0.313 0-0.688 0.063-0.738 0.35-0.063 0.363 1.238 0.875 2.138 1.113l0.275 0.075-1.55 1.012-0.063-0.037c-0.012 0-0.637-0.338-1.25-0.338-0.287 0-0.537 0.075-0.725 0.213-0.213 0.162-0.175 0.3-0.162 0.338 0.113 0.425 1.125 0.925 2.213 1.088l0.338 0.050-0.775 0.475-0.050-0.012c0 0-0.287-0.088-0.512-0.088-0.125 0-0.213 0.025-0.238 0.063-0.012 0.012-0.037 0.075 0.063 0.25l0.162 0.3-0.313-0.125c-0.512-0.2-1.162-0.325-1.75-0.325s-0.825 0.125-0.838 0.188c-0.063 0.25 0.188 0.588 0.287 0.688l0.012 0.012 0.5 0.875-1.2-0.063z"></path>
<path fill="#d0d0d0" d="M10.675 4.3c0 0 0.088 2.65 0.7 2.65 0.037 0 0.075-0.013 0.113-0.025 0.725-0.35 1.063-1.313 1.063-1.313l0.55-0.25c0 0-0.1 0.775 0.25 0.775 0.050 0 0.1-0.013 0.15-0.037 0.525-0.25 1.137-0.563 1.137-0.563l0.762 0.213c0 0-1.95 1.3-1.238 1.787 0.363 0.225 0.775 0.275 0.775 0.275l-0.662 0.475c0 0-0.188-0.037-0.425-0.037-0.35 0-0.8 0.075-0.863 0.463-0.113 0.637 2.237 1.262 2.237 1.262l-1.25 0.825c0 0-0.65-0.35-1.313-0.35-0.275 0-0.563 0.063-0.8 0.238-0.787 0.6 0.637 1.438 2.1 1.65l-0.438 0.275c0 0-0.3-0.088-0.55-0.088-0.275 0-0.5 0.1-0.287 0.488-0.575-0.225-1.25-0.338-1.787-0.338-0.525 0-0.912 0.1-0.95 0.287-0.088 0.375 0.325 0.8 0.325 0.8l0.375 0.662-0.875-0.063c0 0-0.55-0.8-1.213-0.8-0.050 0-0.1 0-0.15 0.012l0.2 0.6c0 0-1.138-0.287-2.4-0.287-0.075 0-0.15 0-0.237 0-0.050-0.725-0.638-1.35-0.625-2.325 0.388-0.025 0.388-0.025 0.388-0.025l-0.525-2.063 0.612-0.225c0 0 0.237 0.925 1.038 0.925 0.013 0 0.013 0 0.025 0 0.813-0.025-0.425-3.188-0.425-3.188l0.838-1.45c0 0 0.188 2.538 1.725 2.638 0.525-0.225 0.575-2.575 0.575-2.575l1.075-1.3zM10.912 3.65l-0.425 0.488-1.1 1.288-0.063 0.075v0.088c0 0-0.012 0.575-0.088 1.163-0.1 0.825-0.25 1.088-0.313 1.162-1.225-0.175-1.4-2.375-1.4-2.388l-0.063-0.813-0.4 0.7-0.838 1.45-0.063 0.1 0.050 0.112c0 0.013 0.25 0.65 0.45 1.35 0.325 1.15 0.225 1.438 0.2 1.488h-0.013c-0.588 0-0.787-0.713-0.787-0.738l-0.075-0.262-0.263 0.088-0.6 0.225-0.213 0.075 0.050 0.225 0.45 1.775-0.088 0.012-0.225 0.012v0.225c-0.013 0.613 0.188 1.088 0.362 1.512 0.125 0.3 0.237 0.563 0.263 0.838l0.013 0.238 0.237-0.012c0.075 0 0.15 0 0.225 0 1.213 0 2.325 0.287 2.338 0.287l0.438 0.113-0.137-0.438-0.088-0.262c0.363 0.113 0.688 0.5 0.8 0.662l0.063 0.1 0.125 0.012 0.875 0.063 0.463 0.025-0.225-0.4-0.375-0.662-0.012-0.025-0.025-0.025c-0.1-0.1-0.287-0.363-0.262-0.55 0.050-0.037 0.262-0.113 0.713-0.113 0.563 0 1.2 0.125 1.7 0.325l0.625 0.25-0.313-0.6c-0.025-0.050-0.037-0.088-0.050-0.113 0.025 0 0.063-0.012 0.113-0.012 0.213 0 0.475 0.075 0.475 0.075l0.113 0.037 0.1-0.063 0.438-0.275 0.575-0.363-0.675-0.1c-1.1-0.175-2.025-0.662-2.112-1-0.012-0.025-0.025-0.1 0.125-0.213 0.162-0.125 0.387-0.188 0.65-0.188 0.588 0 1.188 0.313 1.2 0.325l0.125 0.075 0.125-0.088 1.725-1.137-0.537-0.15c0 0-0.575-0.15-1.125-0.387-0.9-0.375-0.925-0.588-0.925-0.6 0.037-0.225 0.4-0.25 0.613-0.25 0.2 0 0.375 0.025 0.375 0.025l0.1 0.025 0.088-0.063 0.662-0.475 0.5-0.362-0.613-0.088c0 0-0.363-0.050-0.675-0.237-0.037-0.037-0.037-0.050-0.037-0.075 0-0.287 0.675-0.9 1.287-1.313l0.463-0.3-0.525-0.15-0.762-0.213-0.1-0.025-0.088 0.050c0 0-0.6 0.325-1.125 0.563-0.012 0-0.012 0.013-0.025 0.013-0.037-0.088-0.050-0.313-0.025-0.487l0.063-0.45-0.412 0.225-0.55 0.25-0.1 0.050-0.037 0.1c0 0.013-0.313 0.875-0.938 1.175 0 0 0 0 0 0-0.037-0.037-0.225-0.225-0.35-1.213-0.088-0.6-0.1-1.188-0.1-1.188l-0.012-0.65z"></path>
<path fill="#d0d0d0" d="M3.725 15.637l9.85-8.95 0.063 0.063-9.563 9.25z"></path>
<path fill="#d0d0d0" d="M5.938 10.15c0 0 0.45 0.662 0.75 1.4 0.15 0.375 0.263 0.762 0.275 1.075 0 0.075 0 0.15 0 0.213s-0.013 0.125-0.025 0.175c-0.013 0.050-0.025 0.088-0.025 0.113-0.013 0.025-0.013 0.037-0.013 0.037l-0.237-0.088c0 0 0-0.012 0.013-0.025 0-0.025 0.013-0.050 0.025-0.088s0.013-0.088 0.025-0.137c0-0.050 0.013-0.113 0.013-0.188 0-0.275-0.088-0.662-0.213-1.025s-0.3-0.725-0.438-0.975c-0.138-0.262-0.237-0.425-0.237-0.425l0.088-0.063z"></path>
<path fill="#d0d0d0" d="M7.7 12.125c0 0 0-0.012 0.013-0.050 0-0.037 0.013-0.088 0.025-0.15 0.013-0.137 0.037-0.338 0.037-0.575 0.013-0.238 0-0.525-0.013-0.825-0.013-0.15-0.025-0.313-0.037-0.463-0.013-0.162-0.037-0.313-0.050-0.475-0.025-0.162-0.037-0.325-0.075-0.475-0.025-0.162-0.050-0.313-0.075-0.463s-0.050-0.287-0.088-0.425c-0.025-0.137-0.063-0.263-0.088-0.388-0.050-0.237-0.1-0.438-0.138-0.575s-0.050-0.213-0.050-0.213l0.1-0.025c0 0 0.025 0.075 0.063 0.213s0.1 0.338 0.15 0.575c0.025 0.112 0.063 0.25 0.1 0.388s0.063 0.275 0.1 0.425c0.037 0.15 0.063 0.3 0.088 0.463s0.063 0.313 0.088 0.475c0.025 0.162 0.050 0.325 0.075 0.488s0.037 0.313 0.050 0.475c0.025 0.3 0.037 0.588 0.037 0.838s-0.013 0.45-0.025 0.6c-0.013 0.075-0.013 0.125-0.025 0.175-0.013 0.037-0.013 0.063-0.013 0.063l-0.25-0.075z"></path>
<path fill="#d0d0d0" d="M9.3 10.625c0 0 0.287-1.2 0.525-2.4 0.125-0.6 0.238-1.213 0.3-1.662 0.025-0.112 0.037-0.213 0.050-0.313 0.012-0.088 0.025-0.175 0.037-0.237 0.012-0.138 0.025-0.213 0.025-0.213l0.1 0.013c0 0-0.012 0.075-0.025 0.213 0 0.063-0.012 0.15-0.025 0.237s-0.025 0.2-0.037 0.313c-0.063 0.463-0.15 1.075-0.262 1.675-0.213 1.213-0.463 2.425-0.463 2.425l-0.225-0.050z"></path>
<path fill="#d0d0d0" d="M9.887 10.063c0 0 0.25-0.050 0.637-0.1 0.188-0.025 0.412-0.050 0.65-0.075s0.5-0.037 0.75-0.050c0.125 0 0.262-0.012 0.387-0.012s0.25 0 0.375 0c0.125 0 0.238 0 0.35 0.012s0.213 0.012 0.313 0.025c0.1 0.012 0.188 0.025 0.262 0.037s0.15 0.025 0.2 0.037c0.113 0.025 0.175 0.037 0.175 0.037l-0.025 0.1c0 0-0.063-0.012-0.175-0.025-0.050-0.012-0.125-0.025-0.2-0.025-0.075-0.012-0.162-0.012-0.262-0.025s-0.2-0.012-0.3-0.012c-0.113 0-0.225 0-0.338 0s-0.238 0.012-0.363 0.012c-0.125 0-0.25 0.012-0.375 0.025-0.25 0.025-0.5 0.050-0.738 0.075s-0.45 0.063-0.637 0.1c-0.375 0.063-0.625 0.125-0.625 0.125l-0.063-0.262z"></path>
<path fill="#d0d0d0" d="M8.175 11.675c0 0 0.012 0 0.063-0.012 0.037 0 0.088-0.012 0.15-0.012 0.125-0.012 0.3-0.012 0.5 0s0.438 0.025 0.7 0.050c0.25 0.025 0.525 0.063 0.787 0.1s0.537 0.075 0.787 0.125c0.25 0.037 0.488 0.088 0.688 0.125 0.4 0.075 0.662 0.125 0.662 0.125l-0.025 0.1c0 0-0.262-0.037-0.662-0.113-0.2-0.025-0.438-0.063-0.688-0.1s-0.512-0.063-0.787-0.1c-0.262-0.025-0.537-0.050-0.787-0.063s-0.488-0.025-0.688-0.025c-0.2 0-0.363 0.012-0.475 0.012-0.050 0-0.1 0.012-0.125 0.012s-0.037 0.012-0.037 0.012l-0.063-0.238z"></path>
<path fill="#d0d0d0" d="M7.125 12.65c0 0 0.013 0 0.037 0s0.063-0.012 0.1-0.012c0.088 0 0.213-0.012 0.362 0 0.075 0 0.15 0.012 0.237 0.025s0.175 0.025 0.262 0.050c0.088 0.012 0.175 0.050 0.275 0.075 0.088 0.025 0.188 0.063 0.275 0.1s0.175 0.075 0.262 0.125c0.088 0.050 0.162 0.088 0.25 0.137 0.075 0.050 0.15 0.1 0.213 0.137 0.063 0.050 0.125 0.1 0.188 0.137 0.063 0.050 0.113 0.088 0.15 0.125s0.088 0.075 0.113 0.1c0.063 0.050 0.1 0.088 0.1 0.088l-0.075 0.075c0 0-0.037-0.025-0.1-0.088-0.037-0.025-0.075-0.063-0.113-0.088-0.037-0.037-0.1-0.075-0.15-0.113-0.063-0.037-0.113-0.088-0.188-0.125-0.063-0.037-0.137-0.088-0.213-0.125s-0.162-0.075-0.238-0.125c-0.088-0.037-0.175-0.075-0.25-0.1-0.088-0.025-0.175-0.063-0.262-0.088s-0.175-0.050-0.262-0.063c-0.088-0.012-0.162-0.025-0.25-0.037-0.075-0.012-0.15-0.012-0.225-0.012-0.138 0-0.25 0-0.325 0.012-0.037 0-0.075 0.012-0.088 0.012-0.025 0-0.025 0-0.025 0l-0.063-0.225z"></path>
</svg>
