<?xml version="1.0" encoding="utf-8"?>
<!-- Generated by IcoMoon.io -->
<!DOCTYPE svg PUBLIC "-//W3C//DTD SVG 1.1//EN" "http://www.w3.org/Graphics/SVG/1.1/DTD/svg11.dtd">
<svg version="1.1" xmlns="http://www.w3.org/2000/svg" xmlns:xlink="http://www.w3.org/1999/xlink" width="16" height="16" viewBox="0 0 16 16">
<path fill="#444" d="M10.075-0.013h-7.237c-0.575 0-1.038 0.463-1.038 1.038v0 13.95c0 0.575 0.462 1.037 1.038 1.037 0 0 0 0 0 0h10.325c0.575 0 1.037-0.463 1.037-1.037v0-10.863l-4.125-4.125zM9.613 1.025h0.025l3.525 3.525v0.025h-2.975c-0.313-0.013-0.563-0.263-0.575-0.575v-2.975zM13.175 14.95h-10.325v-13.925h5.625v2.987c0 0.95 0.775 1.725 1.725 1.725h2.987l-0.012 9.213zM4 11.875h8v1h-8v-1zM4 9.875h8v1h-8v-1zM4 7.875h8v1h-8v-1z"></path>
</svg>
