<?xml version="1.0" encoding="utf-8"?>
<!-- Generated by IcoMoon.io -->
<!DOCTYPE svg PUBLIC "-//W3C//DTD SVG 1.1//EN" "http://www.w3.org/Graphics/SVG/1.1/DTD/svg11.dtd">
<svg version="1.1" xmlns="http://www.w3.org/2000/svg" xmlns:xlink="http://www.w3.org/1999/xlink" width="16" height="16" viewBox="0 0 16 16">
<path fill="#444" d="M15.037 15.488c0 0.287-0.225 0.512-0.512 0.512h-12.912l-0.55-0.55 2.65-2.65c0.237-0.238 0.537-0.387 0.862-0.425 0.188-0.025 0.362-0.113 0.487-0.25 0.138-0.137 0.225-0.313 0.25-0.5 0.063-0.463-0.275-0.887-0.737-0.95s-0.888 0.275-0.95 0.738c-0.038 0.325-0.188 0.625-0.413 0.863l-2.663 2.65-0.55-0.55c1.438-2.238 2.337-5.725 2.337-5.725l5.225-2.838 2.638 2.637-2.838 5.225c0 0-1.888 0.488-3.763 1.3h10.913c0.287-0.012 0.525 0.225 0.525 0.512zM11.625 7.987c0 0 2.662-1.438 4.375-2.313l-5.675-5.675c-0.875 1.712-2.313 4.362-2.313 4.362l3.613 3.625z"></path>
</svg>
