<?xml version="1.0" encoding="utf-8"?>
<!-- Generated by IcoMoon.io -->
<!DOCTYPE svg PUBLIC "-//W3C//DTD SVG 1.1//EN" "http://www.w3.org/Graphics/SVG/1.1/DTD/svg11.dtd">
<svg version="1.1" xmlns="http://www.w3.org/2000/svg" xmlns:xlink="http://www.w3.org/1999/xlink" width="16" height="16" viewBox="0 0 16 16">
<path fill="#444" d="M8.838 0.838c-2.925 0-5.438 1.763-6.537 4.287l-0.863-2.038c-0.163-0.375-0.6-0.563-0.975-0.4s-0.55 0.6-0.4 0.975l1.65 3.875c0.075 0.188 0.225 0.325 0.412 0.4 0.125 0.050 0.25 0.063 0.388 0.050 0.063-0.013 0.125-0.025 0.188-0.050l3.875-1.65c0.375-0.162 0.55-0.6 0.4-0.975-0.162-0.375-0.6-0.55-0.975-0.4l-2 0.85c0.85-1.85 2.7-3.138 4.862-3.138 2.963 0 5.363 2.413 5.363 5.362s-2.412 5.362-5.363 5.362c-2.013 0-3.763-1.113-4.675-2.75l-1.55 0.9c1.225 2.175 3.55 3.638 6.225 3.638 3.95 0 7.162-3.2 7.162-7.162s-3.225-7.138-7.188-7.138z"></path>
</svg>
