<?xml version="1.0" encoding="utf-8"?>
<!-- Generated by IcoMoon.io -->
<!DOCTYPE svg PUBLIC "-//W3C//DTD SVG 1.1//EN" "http://www.w3.org/Graphics/SVG/1.1/DTD/svg11.dtd">
<svg version="1.1" xmlns="http://www.w3.org/2000/svg" xmlns:xlink="http://www.w3.org/1999/xlink" width="16" height="16" viewBox="0 0 16 16">
<path fill="#444" d="M7 14.050l2.738-4.188 0.55 1.5c1.976-0.863 3.332-2.801 3.332-5.055 0-1.769-0.835-3.342-2.132-4.348 2.030 1.177 3.381 3.354 3.381 5.847 0 2.613-1.485 4.879-3.656 6.001l0.575 1.693z"></path>
<path fill="#444" d="M4.825 2.175l-0.612-1.675 4.787 1.45-2.737 4.188-0.55-1.5c-1.976 0.863-3.332 2.801-3.332 5.055 0 1.769 0.835 3.342 2.132 4.348-2.030-1.177-3.381-3.354-3.381-5.847 0-2.613 1.485-4.879 3.656-6.001z"></path>
</svg>
