<?xml version="1.0" encoding="utf-8"?>
<!-- Generated by IcoMoon.io -->
<!DOCTYPE svg PUBLIC "-//W3C//DTD SVG 1.1//EN" "http://www.w3.org/Graphics/SVG/1.1/DTD/svg11.dtd">
<svg version="1.1" xmlns="http://www.w3.org/2000/svg" xmlns:xlink="http://www.w3.org/1999/xlink" width="16" height="16" viewBox="0 0 16 16">
<path fill="#444" d="M6.15 9.65h-0.525v1.35h-1.037v-4h2c0.888 0 1.388 0.588 1.388 1.338 0 0.7-0.425 1.063-0.8 1.2l0.825 1.463h-1.188l-0.662-1.35zM6.438 7.875h-0.813v0.9h0.813c0.275 0 0.5-0.175 0.5-0.45s-0.237-0.45-0.5-0.45zM7 3.125l-0.85-1.5c-0.088-0.15-0.25-0.25-0.438-0.25h-5.213c-0.275 0-0.5 0.225-0.5 0.5v1.25h7zM15 3.625h-15v10c0 0.55 0.45 1 1 1h14c0.55 0 1-0.45 1-1v-9c0-0.55-0.45-1-1-1zM11 6.263h-0.825c-0.313 0-0.563 0.225-0.563 0.487v4.5c0 0.262 0.25 0.488 0.563 0.488h0.825v0.512h-0.825c-0.338 0-0.625-0.137-0.825-0.363-0.2 0.225-0.488 0.363-0.825 0.363h-0.825v-0.512h0.825c0.313 0 0.563-0.213 0.563-0.488v-4.5c0-0.263-0.25-0.487-0.563-0.487h-0.825v-0.513h0.825c0.338 0 0.625 0.138 0.825 0.362 0.2-0.225 0.488-0.362 0.825-0.362h0.825v0.513z"></path>
</svg>
