<?xml version="1.0" encoding="utf-8"?>
<!-- Generated by IcoMoon.io -->
<!DOCTYPE svg PUBLIC "-//W3C//DTD SVG 1.1//EN" "http://www.w3.org/Graphics/SVG/1.1/DTD/svg11.dtd">
<svg version="1.1" xmlns="http://www.w3.org/2000/svg" xmlns:xlink="http://www.w3.org/1999/xlink" width="16" height="16" viewBox="0 0 16 16">
<path fill="#444" d="M15.713 14.287l-4.388-4.388c0.738-1.025 1.175-2.287 1.175-3.65 0-3.45-2.8-6.25-6.25-6.25s-6.25 2.8-6.25 6.25 2.8 6.25 6.25 6.25c1.362 0 2.625-0.438 3.65-1.175l4.388 4.388c0.2 0.2 0.45 0.287 0.713 0.287s0.512-0.1 0.713-0.287c0.387-0.4 0.387-1.025 0-1.425zM2 6.25c0-2.337 1.913-4.25 4.25-4.25s4.25 1.913 4.25 4.25-1.912 4.25-4.25 4.25-4.25-1.912-4.25-4.25z"></path>
</svg>
