<?xml version="1.0" encoding="utf-8"?>
<!-- Generated by IcoMoon.io -->
<!DOCTYPE svg PUBLIC "-//W3C//DTD SVG 1.1//EN" "http://www.w3.org/Graphics/SVG/1.1/DTD/svg11.dtd">
<svg version="1.1" xmlns="http://www.w3.org/2000/svg" xmlns:xlink="http://www.w3.org/1999/xlink" width="16" height="16" viewBox="0 0 16 16">
<path fill="#444" d="M15.887 6.75c0.063 0.412 0.113 0.825 0.113 1.25 0 4.412-3.588 8-8 8s-8-3.588-8-8 3.587-8 8-8c1.563 0 3.025 0.45 4.25 1.238-0.050 0.050-0.113 0.087-0.162 0.137l-1.313 1.313c-0.838-0.438-1.775-0.688-2.775-0.688-3.313 0-6 2.688-6 6s2.688 6 6 6c3.075 0 5.613-2.325 5.963-5.313l1.925-1.938zM8.938 10.887l6.338-6.338c0.488-0.487 0.488-1.275 0-1.763s-1.275-0.487-1.762 0l-5.463 5.45-2.275-2.287c-0.487-0.487-1.275-0.487-1.763 0s-0.487 1.275 0 1.763l3.163 3.163c0.25 0.25 0.563 0.363 0.887 0.363s0.625-0.113 0.875-0.35z"></path>
</svg>
